<svg xmlns="http://www.w3.org/2000/svg" xmlns:xlink="http://www.w3.org/1999/xlink" viewBox="0 0 3746.94 2405.67"><defs><style>.cls-1{mask:url(#mask);filter:url(#luminosity-noclip-5);}.cls-2,.cls-4,.cls-6,.cls-8{mix-blend-mode:multiply;}.cls-2{fill:url(#linear-gradient);}.cls-3{mask:url(#mask-2);filter:url(#luminosity-noclip-6);}.cls-4{fill:url(#linear-gradient-2);}.cls-5{mask:url(#mask-3);filter:url(#luminosity-noclip-7);}.cls-6{fill:url(#linear-gradient-3);}.cls-7{mask:url(#mask-4);filter:url(#luminosity-noclip-8);}.cls-8{fill:url(#linear-gradient-4);}.cls-32,.cls-9{opacity:0.7;}.cls-10{fill:#e3e1f7;}.cls-11,.cls-25,.cls-34,.cls-38{fill:none;}.cls-11{stroke:#e3e1f7;stroke-width:11.34px;}.cls-11,.cls-25,.cls-34,.cls-35,.cls-36{stroke-miterlimit:10;}.cls-12{fill:#bebdef;}.cls-13{opacity:0.37;}.cls-14{fill:#6b83fe;}.cls-15{opacity:0.63;}.cls-16,.cls-35,.cls-37,.cls-50{fill:#fff;}.cls-17{fill:#fec42a;}.cls-18{fill:#f28b0f;}.cls-19{opacity:0.71;}.cls-20{fill:#683c1e;}.cls-21{opacity:0.66;}.cls-22{fill:#fcaa47;}.cls-23{fill:#0e20a8;}.cls-24,.cls-36{fill:#09074a;}.cls-25,.cls-36{stroke:#09074a;}.cls-26{fill:#fec0af;}.cls-27,.cls-32{fill:#fe8753;}.cls-28{fill:#3a1a08;}.cls-29{fill:#fe4224;}.cls-30{opacity:0.79;}.cls-31{fill:#ce6f09;}.cls-33{fill:#fac0b0;}.cls-34{stroke:#fe4224;stroke-width:5.67px;}.cls-35{stroke:#000;stroke-width:4px;}.cls-37{opacity:0.46;}.cls-39{fill:#2b3bfe;}.cls-40{fill:url(#linear-gradient-5);}.cls-41{mask:url(#mask-5);}.cls-42{fill:url(#linear-gradient-6);}.cls-43{mask:url(#mask-6);}.cls-44{fill:url(#linear-gradient-7);}.cls-45{mask:url(#mask-7);}.cls-46{fill:url(#linear-gradient-8);}.cls-47{opacity:0.28;}.cls-48{mask:url(#mask-8);}.cls-49{opacity:0.76;fill:url(#linear-gradient-9);}.cls-50{opacity:0.3;}.cls-51{filter:url(#luminosity-noclip-4);}.cls-52{filter:url(#luminosity-noclip-3);}.cls-53{filter:url(#luminosity-noclip-2);}.cls-54{filter:url(#luminosity-noclip);}</style><filter id="luminosity-noclip" x="525.51" y="-8991.5" width="473.99" height="32766" filterUnits="userSpaceOnUse" color-interpolation-filters="sRGB"><feFlood flood-color="#fff" result="bg"/><feBlend in="SourceGraphic" in2="bg"/></filter><mask id="mask" x="525.51" y="-8991.5" width="473.99" height="32766" maskUnits="userSpaceOnUse"><g class="cls-54"/></mask><linearGradient id="linear-gradient" x1="525.51" y1="864.01" x2="999.5" y2="864.01" gradientUnits="userSpaceOnUse"><stop offset="0" stop-color="#fff"/><stop offset="1"/></linearGradient><filter id="luminosity-noclip-2" x="1283.74" y="-8991.5" width="54.82" height="32766" filterUnits="userSpaceOnUse" color-interpolation-filters="sRGB"><feFlood flood-color="#fff" result="bg"/><feBlend in="SourceGraphic" in2="bg"/></filter><mask id="mask-2" x="1283.74" y="-8991.5" width="54.82" height="32766" maskUnits="userSpaceOnUse"><g class="cls-53"/></mask><linearGradient id="linear-gradient-2" x1="1738.47" y1="-210.47" x2="1778.39" y2="-210.47" gradientTransform="translate(1247.17 -692.29) rotate(94.76)" xlink:href="#linear-gradient"/><filter id="luminosity-noclip-3" x="713.04" y="-8991.5" width="223.61" height="32766" filterUnits="userSpaceOnUse" color-interpolation-filters="sRGB"><feFlood flood-color="#fff" result="bg"/><feBlend in="SourceGraphic" in2="bg"/></filter><mask id="mask-3" x="713.04" y="-8991.5" width="223.61" height="32766" maskUnits="userSpaceOnUse"><g class="cls-52"/></mask><linearGradient id="linear-gradient-3" x1="713.04" y1="1188.8" x2="936.65" y2="1188.8" xlink:href="#linear-gradient"/><filter id="luminosity-noclip-4" x="683.24" y="-8991.5" width="1817.46" height="32766" filterUnits="userSpaceOnUse" color-interpolation-filters="sRGB"><feFlood flood-color="#fff" result="bg"/><feBlend in="SourceGraphic" in2="bg"/></filter><mask id="mask-4" x="683.24" y="-8991.5" width="1817.46" height="32766" maskUnits="userSpaceOnUse"><g class="cls-51"/></mask><linearGradient id="linear-gradient-4" x1="1003.5" y1="1675.13" x2="1625.23" y2="906.37" xlink:href="#linear-gradient"/><linearGradient id="linear-gradient-5" y1="1026.91" x2="1649.69" y2="1026.91" gradientUnits="userSpaceOnUse"><stop offset="0" stop-color="#fff"/><stop offset="1" stop-color="#2b3bfe"/></linearGradient><filter id="luminosity-noclip-5" x="525.51" y="549.67" width="473.99" height="628.68" filterUnits="userSpaceOnUse" color-interpolation-filters="sRGB"><feFlood flood-color="#fff" result="bg"/><feBlend in="SourceGraphic" in2="bg"/></filter><mask id="mask-5" x="525.51" y="549.67" width="473.99" height="628.68" maskUnits="userSpaceOnUse"><g class="cls-1"><path class="cls-2" d="M654.81,1178.35c-43.88,0-77.17-8.81-99.21-26.29-22.9-18.18-32.81-45.22-29.44-80.36,8.37-87.52,72.09-172.67,133.32-244.43C755,715.35,879.6,627.94,989.56,550.81a6.31,6.31,0,1,1,7.25,10.34C887.47,637.84,763.53,724.77,669.09,835.46c-60,70.27-122.32,153.42-130.37,237.44-2.93,30.61,5.39,53.92,24.73,69.26,23.46,18.62,64.09,26.43,117.49,22.58,58.71-4.24,110.48-20.45,124.95-25.32a6.32,6.32,0,1,1,4,12c-14.83,5-67.87,21.6-128.07,25.94Q667.74,1178.35,654.81,1178.35Z"/></g></mask><linearGradient id="linear-gradient-6" x1="525.51" y1="864.01" x2="999.5" y2="864.01" gradientUnits="userSpaceOnUse"><stop offset="0" stop-color="#fff"/><stop offset="1" stop-color="#fff"/></linearGradient><filter id="luminosity-noclip-6" x="1283.74" y="964.96" width="54.82" height="225.03" filterUnits="userSpaceOnUse" color-interpolation-filters="sRGB"><feFlood flood-color="#fff" result="bg"/><feBlend in="SourceGraphic" in2="bg"/></filter><mask id="mask-6" x="1283.74" y="964.96" width="54.82" height="225.03" maskUnits="userSpaceOnUse"><g class="cls-3"><rect class="cls-4" x="1198.97" y="1066.78" width="224.37" height="21.39" transform="translate(49.12 2212.09) rotate(-81.37)"/></g></mask><linearGradient id="linear-gradient-7" x1="1738.47" y1="-210.47" x2="1778.39" y2="-210.47" gradientTransform="translate(1247.17 -692.29) rotate(94.76)" xlink:href="#linear-gradient-6"/><filter id="luminosity-noclip-7" x="713.04" y="1076.99" width="223.61" height="223.62" filterUnits="userSpaceOnUse" color-interpolation-filters="sRGB"><feFlood flood-color="#fff" result="bg"/><feBlend in="SourceGraphic" in2="bg"/></filter><mask id="mask-7" x="713.04" y="1076.99" width="223.61" height="223.62" maskUnits="userSpaceOnUse"><g class="cls-5"><path class="cls-6" d="M912.63,1119.58v0a112.9,112.9,0,0,0-26.14-24c-2-1.3-4-2.56-6.08-3.75a111.44,111.44,0,0,0-28.9-11.58c-.8-.19-1.59-.38-2.38-.55-3.59-.78-7.22-1.41-10.91-1.85-.92-.11-1.84-.21-2.76-.29l-.41,0c-.8-.09-1.6-.14-2.4-.21q-2.79-.18-5.64-.24h-2c-.4,0-.81,0-1.21,0-.82,0-1.64,0-2.47,0-1.9.06-3.82.16-5.74.32-1.31.11-2.61.24-3.9.4-2.6.3-5.17.7-7.7,1.16-1.27.24-2.53.51-3.77.79s-2.49.58-3.72.9a112.92,112.92,0,0,0-25.23,10c-1.54.84-3,1.71-4.54,2.62-2.22,1.36-4.4,2.79-6.52,4.3l-2.1,1.53c-.7.51-1.39,1-2.07,1.57s-1.36,1.08-2,1.63-1.33,1.1-2,1.66-1.31,1.14-2,1.72l-1.9,1.75c-1.25,1.19-2.49,2.4-3.69,3.64s-2.36,2.51-3.5,3.8c-.57.64-1.13,1.3-1.68,2-1.65,2-3.24,4-4.75,6.06,0,0,0,0,0,.06a112.41,112.41,0,0,0-8.28,13.16c-.36.69-.72,1.4-1.09,2.1l-.1.2a103,103,0,0,0-4.77,10.79c-.21.54-.4,1.08-.61,1.62-.26.72-.52,1.45-.76,2.18-.31.92-.61,1.84-.89,2.78-.23.69-.44,1.41-.63,2.13-.38,1.3-.73,2.61-1.06,3.94-.18.73-.35,1.45-.51,2.18s-.29,1.22-.41,1.84c-.09.45-.19.9-.27,1.36-.18.89-.34,1.8-.5,2.71s-.31,1.82-.43,2.74c-.41,2.69-.71,5.4-.88,8.14,0,.1,0,.2,0,.32-.06.89-.1,1.79-.15,2.69s0,1.74-.08,2.62a.6.6,0,0,0,0,.19l0,2.84c0,2.84.14,5.72.38,8.61a111.48,111.48,0,0,0,7.77,32.71q1.54,3.83,3.36,7.5c.41.81.82,1.62,1.24,2.43.82,1.61,1.72,3.19,2.64,4.73v0c.45.78.92,1.55,1.41,2.3s1,1.53,1.46,2.28,1,1.51,1.5,2.24,1,1.49,1.57,2.21,1,1.45,1.6,2.16c1.09,1.43,2.22,2.84,3.38,4.2.58.68,1.16,1.36,1.75,2s1.2,1.34,1.81,2,1.22,1.3,1.85,1.94,1.26,1.28,1.9,1.9c1.9,1.87,3.89,3.69,6,5.41,1.36,1.15,2.76,2.27,4.17,3.37.72.53,1.42,1.08,2.14,1.6,1.44,1.08,2.91,2.09,4.41,3.06.76.5,1.51,1,2.27,1.46s1.52,1,2.28,1.4h0q2.29,1.38,4.68,2.62l2.4,1.24c.8.41,1.61.79,2.44,1.18l2.46,1.12,2.48,1.06c.83.33,1.67.67,2.52,1,1.68.65,3.39,1.26,5.11,1.82.87.3,1.74.58,2.62.85,1.73.5,3.5,1,5.26,1.42,1.55.4,3.12.74,4.7,1,.22.05.45.11.67.14a1.27,1.27,0,0,0,.24.07c.73.14,1.45.27,2.17.38a1.85,1.85,0,0,0,.46.08c.8.13,1.61.27,2.43.39a1.65,1.65,0,0,0,.38,0c2.65.4,5.33.69,8,.85a.35.35,0,0,0,.14,0c.9.06,1.82.11,2.73.14,1.89.1,3.78.13,5.68.1l2.85-.06,2.86-.12c1-.05,1.92-.11,2.89-.19a111.06,111.06,0,0,0,16-2.5c1.09-.24,2.15-.5,3.23-.79.63-.15,1.27-.33,1.9-.53l2.53-.73,2.5-.8c1.66-.55,3.29-1.12,4.91-1.76s3.22-1.29,4.8-2c1-.46,2-.92,3-1.4l2-1,.6-.3a106.13,106.13,0,0,0,10.2-5.91c.72-.46,1.42-.93,2.13-1.41a.06.06,0,0,0,0,0c1.39-1,2.74-1.95,4.09-3a111.76,111.76,0,0,0,20.62-158.57Z"/></g></mask><linearGradient id="linear-gradient-8" x1="713.04" y1="1188.8" x2="936.65" y2="1188.8" xlink:href="#linear-gradient-6"/><filter id="luminosity-noclip-8" x="683.24" y="332.56" width="1817.46" height="1692.81" filterUnits="userSpaceOnUse" color-interpolation-filters="sRGB"><feFlood flood-color="#fff" result="bg"/><feBlend in="SourceGraphic" in2="bg"/></filter><mask id="mask-8" x="683.24" y="332.56" width="1817.46" height="1692.81" maskUnits="userSpaceOnUse"><g class="cls-7"><polygon class="cls-8" points="683.24 1471.99 925.6 332.56 2500.7 1262.74 1520.85 2025.37 683.24 1471.99"/></g></mask><linearGradient id="linear-gradient-9" x1="1003.5" y1="1675.13" x2="1625.23" y2="906.37" xlink:href="#linear-gradient-6"/></defs><g id="Layer_2" data-name="Layer 2"><g id="Layer_1-2" data-name="Layer 1"><g class="cls-9"><path class="cls-10" d="M3568.23,1754.79a882.59,882.59,0,0,1-60,122.78c-30.64,51.86-66.59,99.87-107.79,142.66q-18.86,19.57-39.18,37.65-11.85,10.51-24.18,20.48c-1.46,1.19-2.94,2.36-4.41,3.53L3330,2084q-5.31,4.16-10.7,8.22a648.76,648.76,0,0,1-122.16,72.7c-71.57,32.55-146.09,55.39-222.27,72q-12.06,2.63-24.19,5c-118.67,23.72-241,33.23-362.21,41.4l-24.18,1.62c-45,3-89.73,5.91-134.05,9.42-75.53,6-151.69,11.45-228.16,15.78q-12.07.7-24.17,1.33c-120.43,6.44-241.57,9.94-362.22,8.18q-12.11-.18-24.18-.43c-108.42-2.23-216.37-8.84-323-21.51q-19.7-2.32-39.17-5.06-12.13-1.68-24.18-3.53c-128.19-19.58-249.48-51.76-362.21-97.87q-12.17-5-24.19-10.16c-2.66-1.14-5.32-2.3-8-3.46-106.81-46.9-205.55-106.76-294.79-180.77q-30.48-25.26-59.46-52.77-12.22-11.6-24.18-23.62c-79-79.31-148.86-171.78-208.42-278.4C299.62,1419.61,254.12,1166,315.19,917c52.15-212.61,165.93-390.25,317.12-527.75q11.94-10.86,24.18-21.38c106.34-91.41,229.68-163.82,362.21-215.57q12-4.68,24.19-9.17A1385,1385,0,0,1,1405.1,63q12.09-1,24.18-1.81a1345.48,1345.48,0,0,1,284.73,11Q1753.79,78,1791.49,87q12.19,2.86,24.18,6c132.95,35.18,248.64,97.35,362.22,171.13q12.11,7.86,24.17,15.89c44.06,29.27,88,60.14,132.61,91.71,42.47,30,87,52.42,133.08,69.62h0q7.88,2.92,15.78,5.67h0c24.14,8.35,48.66,15.37,73.52,21.39q3.6.89,7.2,1.72,12,2.83,24.18,5.37c68.9,14.43,139.94,22.46,211.46,31.15,50,6.08,100.6,14.36,150.75,25.39q12.12,2.68,24.19,5.56,40.52,9.68,80.39,22,19.26,5.94,38.26,12.56c2.6.9,5.21,1.82,7.8,2.74C3185.81,605,3266.09,645.37,3337.06,699q12.29,9.27,24.18,19.09a678.3,678.3,0,0,1,69.84,66.27c112.84,123.58,179.28,289.56,200.64,464.89C3652.42,1419,3630.86,1597.49,3568.23,1754.79Z"/></g><path class="cls-11" d="M3699.93,1619.38a927.89,927.89,0,0,1-50.44,134.55c-26.83,57.36-59.61,111.23-98.42,160.16q-17.76,22.4-37.21,43.36-11.34,12.18-23.24,23.87c-1.41,1.39-2.83,2.76-4.26,4.14-.85.83-1.72,1.65-2.58,2.49q-5.15,4.89-10.37,9.68A682.25,682.25,0,0,1,3352.89,2086c-71.62,41.27-147.3,72.69-225.36,97.71q-12.36,4-24.8,7.7c-121.81,36.79-248.89,59.07-374.9,79.84l-25.15,4.13c-46.76,7.66-93.31,15.23-139.34,23.37-78.44,13.89-157.59,27.28-237.18,39.52q-12.57,2-25.17,3.83c-125.38,18.88-251.8,34.75-378.25,45.07q-12.67,1-25.35,2c-113.68,8.6-227.33,12.56-340.24,10.06q-20.85-.47-41.5-1.35-12.89-.54-25.67-1.26c-136.13-7.57-266.3-29-388.93-65.91q-13.23-4-26.34-8.2c-2.9-.93-5.8-1.86-8.68-2.81-116.51-38.32-225.88-91-326.73-159.47q-34.45-23.37-67.55-49.24-14-10.91-27.69-22.28c-90.64-75-173.11-164.77-246.18-270.35C245.39,1598.1,172.2,1337.21,211,1070.55c33.15-227.76,134.32-425.13,278.69-584.28q11.4-12.57,23.15-24.81C614.93,355.08,736.71,266.87,870.2,199.35q12.13-6.12,24.39-12a1455.81,1455.81,0,0,1,371-120.44q12.56-2.3,25.13-4.34a1414.8,1414.8,0,0,1,299.09-17.15q42.23,2.11,82.58,7.69,13.05,1.77,25.91,3.89c142.69,23.41,270,76.81,396.33,142.58q13.47,7,26.9,14.19c49.07,26.19,98.13,54.07,148,82.61,47.48,27.13,96.35,46.09,146.3,59.45h0q8.52,2.28,17.07,4.35h0c26.11,6.31,52.49,11.18,79.11,15,2.57.37,5.14.72,7.7,1.07q12.9,1.74,25.86,3.17c73.56,8.17,148.71,9.41,224.44,11.3,53,1.31,106.73,4.88,160.32,11.37q12.94,1.58,25.88,3.38c28.91,4,57.75,8.94,86.34,14.86q20.76,4.29,41.31,9.29l8.43,2.08c91.48,23,179.57,57.16,259.25,106.08q13.79,8.47,27.23,17.54a714.46,714.46,0,0,1,79.77,62.32c130.55,118,216.82,285,256.84,466.3C3754.19,1259.44,3749.62,1448.45,3699.93,1619.38Z"/><path class="cls-10" d="M656.49,367.9V1944.1q-12.22-11.6-24.18-23.62V389.28Q644.25,378.42,656.49,367.9Z"/><path class="cls-10" d="M1042.89,143.16v2048.1q-12.17-5-24.19-10.16V152.33Q1030.74,147.65,1042.89,143.16Z"/><path class="cls-10" d="M1429.28,61.15V2292.66q-12.13-1.68-24.18-3.53V63Q1417.19,61.94,1429.28,61.15Z"/><path class="cls-10" d="M1815.67,93V2319.66q-12.11-.18-24.18-.43V87Q1803.69,89.87,1815.67,93Z"/><path class="cls-10" d="M2202.06,280.06V2310.15q-12.07.7-24.17,1.33V264.17Q2190,272,2202.06,280.06Z"/><path class="cls-10" d="M2588.45,475.54V2283.33l-24.18,1.62V470.17Q2576.32,473,2588.45,475.54Z"/><path class="cls-10" d="M2974.85,537.64V2236.9q-12.06,2.63-24.19,5V532.08Q2962.78,534.77,2974.85,537.64Z"/><path class="cls-10" d="M3361.24,718.05V2057.88q-11.85,10.51-24.18,20.48V699Q3349.35,708.23,3361.24,718.05Z"/><path class="cls-12" d="M3400.42,2020.23c-57.56,59.76-125.38,109.28-203.3,144.71-238.75,108.58-510.37,109.09-766.9,129.43-317.12,25.14-645.19,41-961.77,3.35-164.17-19.51-317.84-58.67-457.71-120.08-106.81-46.9-205.55-106.76-294.79-180.77,122.81,1.1,283.16,2.52,465.66,4.12,197.73,1.74,421.44,3.69,651.49,5.69l17.23,6.26c8.66,3.15,20.06,5.59,25.66-1.72,4.52.74,10.64,5.38,15.15,6.13a190.71,190.71,0,0,1-16.14-10.3l221.85,1.92,110.74,1,3.81,0,15.14.13,13.28.11,17.85.15,34.69.3h.94l53.22.46,35.33.31,157.51,1.35c3.11,0,6.23.06,9.34.09l64.3.55,99.23.86,15.36.13h.15c1.88.06,3.62.09,5.25,0l4.48,0,11.32.1,41.06.36c92.33.8,180.5,1.57,262.79,2.27l207,1.78C3310.7,2019.45,3357.83,2019.85,3400.42,2020.23Z"/><path class="cls-12" d="M2767.07,2000.92c-1.71,0-3.52,0-5.48-.05Z"/><path class="cls-12" d="M1887.92,2003.93c-4.71-.78-11.1-5.62-15.82-6.4-5.85,7.64-17.75,5.09-26.79,1.8l-18-6.53q21.84.18,43.75.38C1876.49,1997.06,1882.16,2000.63,1887.92,2003.93Z"/><g class="cls-9"><path class="cls-10" d="M2970.21,426c180.52-27.18,124.5-174,24.71-266.1C2857.79,33.27,2612.73-8.67,2431.37,1.45c-89,5-253.86,49.22-224.86,173.7C2227.67,266,2392.17,324,2467.85,356.65,2547.55,391.05,2808.24,450.37,2970.21,426Z"/></g><g class="cls-13"><path class="cls-14" d="M3317.08,2005.67c-34.18,29.69-101.56,16.85-140.74,30.11-21.73,7.35-38.11,20.29-61.44,24.44-31.52,5.57-64.47,2.33-96.27,2.32-15,0-110.7,8.52-116.6,17.36,0,0,13.52,27.7.82,32.78s-244,4.44-259.64,5.71-116.93-53.17-116.93-53.17c-315.7-50.14-643.24,58.8-1052.83,85.1L925.6,2064.76,1147,1986.85c206.49,1.82,440.1,3.85,680.35,6l18,6.53c9,3.29,20.94,5.84,26.79-1.8,4.72.78,11.11,5.62,15.82,6.4-5.76-3.3-11.43-6.87-16.86-10.75,76.91.65,154.35,1.33,231.69,2q57.93.52,115.65,1l4,0,15.81.13,13.87.12q9.32.09,18.64.16l36.23.31h1l55.58.48,36.89.32,164.49,1.42,9.75.09,67.15.58,103.62.89,16,.13h.16c2,.07,3.77.1,5.48.05l4.67,0,11.83.1,42.87.38c96.43.83,188.5,1.64,274.44,2.37Z"/></g><g class="cls-15"><path class="cls-12" d="M3579,1921.39l3.16,1.33Zm-111.51-330.94c.93-.63,2.54-4,2.94-5.06,22.83,65.81,64.45,127,97.85,169.4,62.63-157.3,84.19-335.83,63.49-505.58-34.84-44.46-61.11-77.86-65-83-12.06-16.16-38.17-113.39-96.42-148.55-49.93-30.13-188.32-21.89-252.19-28-5.42-.51-10.29-1.14-14.54-1.9-3.29-2.36-6.78-3.4-10.45-2.6h0c-9.47-3.4-18.95-6.64-27.93-9.66-7-2.37-13.63-4.63-19.78-6.78-13.37-8.7-25.85-18.59-34.59-24.15-5.85-3.71-28.88-27.68-35.52-14.81a11.33,11.33,0,0,0-.86,5.21c0,1.25,0,2.48,0,3.7a284,284,0,0,1-17.64-26c-18.3-30.33-44.49-27.77-44.63-27.75-5.08-22.82-8.11-44.27-5.83-60.6.48-3.49.93-6.78,1.32-9.91,3.74-11.29,8.11-22.58,11.35-30.9-2,15.76-6.37,44.61,9.67,54.78,4.55,2.89,15.06,4.85,20.39,6.62.16.05.34.11.53.15,5.59,1.42,25.06,1.48,27.27,3.79-8.46-8.83-12.38-21-14.57-33.06-3.69-20.23-11.78-40.74-9.47-61.14,2.8-24.52,11.38-48.06,13-72.76,3.09-48.3-7.43-52-7.43-52,1.64-27.88.22-50.88-3.18-70.28q-39.79-12.33-80.39-22-12.07-2.89-24.19-5.56c-50.15-11-100.72-19.31-150.75-25.39-71.52-8.69-142.56-16.72-211.46-31.15q-12.13-2.55-24.18-5.37-3.6-.84-7.2-1.72c-2.89,3.78-6,7.45-9.93,10.05-4.35,2.89-10,4.32-14.88,2.53,3.19,4,6.85,8,11.32,10.42a21,21,0,0,0,3,1.37,17,17,0,0,0,12.79-.28,8.82,8.82,0,0,0-1,2.4c-3.55,12.18-16.12,19.05-27.65,24.34s-23.33,10.26-35.88,10.58a41.13,41.13,0,0,1-18.17-3.66,28.94,28.94,0,0,1-13.75-12.51c-12.32,10.9-15.46,28.8-15.7,45.26,0,.92,0,1.85,0,2.79,0,6.72.65,13.51,3.36,19.62a26,26,0,0,0,4.23,6.6,23.24,23.24,0,0,0,2,2,18.71,18.71,0,0,0,10.79,5c-.79,3.93,1.82,7.94,5.28,10s7.58,2.55,11.57,2.92q6.48.61,13,.92a275.37,275.37,0,0,0,36.56-.76c4.93-.42,5.56-3.23,6.75-8l.15.07c-.69,9-1.4,19.31-2,30.45-1.5,27-2.46,58.8-1.41,88.91-19.39,9.95-64.76,32-65.34,32.33h0s-2.91,10.66,9.7,34.92c10.87,20.92,23.19,52,26.38,60.11a3.63,3.63,0,0,0,2.93,2.3c6,.78,24.23,3,48.12,4.68-5.26,15.79-13.46,43.22-9.14,49.3,5.08,7.17,14.85,13.73,24.44,14.31a21,21,0,0,0,4.42-.17l1.59,0c0,.17.12.44.21.78a13.56,13.56,0,0,0,1.06,3.78c.22.83.48,1.75.76,2.75,5.73,20.71,21.47,77.69,25,91.8,1.45,5.82,4.78,15.17,9,25.11-.19,1.12-.38,2.26-.57,3.41-12.83,6.06-25.38,12.69-37.94,19.27-36,18.83-71.91,37-114.34,38.34-29.45.92-58.52,10.89-78,33.74-47.08,55.06-30.44,141.23-43,207.74a875.76,875.76,0,0,1-78.31,231.75,315.5,315.5,0,0,0-33.71,122.23c-3.23,47.31-22,96-34.2,142-11.15,42-45.32,109.29-21.91,153.27a63.23,63.23,0,0,0,21.56,23.2c4.89,3.23,10.44,5.25,15.94,7.26l99,36,17.25,6.27c8.66,3.14,20,5.58,25.65-1.73,4.54.75,10.66,5.38,15.17,6.13-1.54-.87-3-1.78-4.57-2.7-.58-.35-1.16-.72-1.75-1.07-1-.59-1.88-1.19-2.81-1.78l-1.93-1.26c-.91-.6-1.8-1.22-2.7-1.84-.6-.4-1.19-.81-1.78-1.22-1.42-1-2.83-2-4.2-3.09,33.18,7.27,84.3,17.75,95,18.13a199.44,199.44,0,0,1-11.74-19.65l0,0c-.79-1.53-1.58-3.11-2.36-4.72,4.66,6.26,11.87,9.75,17,15.5l1.14,1.3c3,3.47,5,5.67,9.9,7.59,9.89,3.84,20.45,6.21,30.76,8.53,16.34,3.68,33.43,8,50.17,9.27,2.12.17,18.19-1.56,36-3.58,22.22-2.56,47.12-5.58,50.79-6,6.62-.73,26.47-14.69,26.47-14.69s2-1.35,5-3.45l.05,0,4.07-2.83q12,.09,24.09.21l3.8,0,15.16.13c4.42,0,8.85.07,13.27.12l9.32.07,114.82,1,18,.16,35.95.31,210.68,1.82,46.62.4,28.89.25c-2.25,9.57,10.93,22.77,10.93,22.77l126.18,2.33,14.61.26s-2.07-4.25-3.91-8.48c-3-6.89-5.38-13.71,2.67-2.13,1.47-1.17,2.95-2.34,4.41-3.53q12.34-10,24.18-20.48,20.33-18.06,39.18-37.65c41.2-42.79,77.15-90.8,107.79-142.66-7.49-35.24-15.12-69.85-15.6-107.09-.43-33.78-2.88-67.37-11.23-100.21-6.39-25.1-16.53-49.92-15.44-75.8C3466,1593,3466.21,1591.29,3467.44,1590.45Zm-908.11-737c.34-1.15,1.41-4.8,2.67-9.89l.63-2.63.51,1.62S2561.5,847,2559.33,853.43ZM2313.59,1989c0-.12,0-.24,0-.37.06-.4.14-.8.21-1.19C2313.75,1988,2313.66,1988.49,2313.59,1989Zm22-45.68.66-.83a.15.15,0,0,1,.06,0C2336.11,1942.73,2335.88,1943,2335.64,1943.33Zm16.3-17.53c1.37-1.31,2.8-2.64,4.27-4C2354.74,1923.17,2353.31,1924.49,2351.94,1925.8Zm165.54-96.55a33.26,33.26,0,0,0-5.43-.7c-9.67-.37-16-2.61-21.91-2.83,4.19-17.15,7.79-34.49,11.67-51.37,15.53,25.18,28.57,46.16,39.69,63.82C2532.62,1834.35,2524.6,1830.75,2517.48,1829.25Zm267.12-773c8,5.26,18.8,13.79,30.88,27.21Zm48.36,49-.09-.06.12.07Zm179.31-220.15L3020.8,919C3017.72,907.68,3014.75,896.24,3012.27,885.12ZM3579,1921.39l3.16,1.33Z"/><path class="cls-12" d="M2548.71,403.26l-92.65,43.65C2491.89,453.08,2530.66,434.82,2548.71,403.26Z"/></g><path class="cls-16" d="M2867,1900c-5,36.7-14.45,77.15-40.53,101.48-184.3-1.58-384.5-3.32-588.26-5.08-4.74-5-9.28-10.3-13.59-15.72,13.74-155.25-21.15-310.06-40.49-464.72s-21.37-319.51,51.73-457.17c2.13-4,4.37-8,6.75-12,15.39-25.65,36.32-49.28,65.13-54.65,44.53-6.85,72.7,33.24,115.3,33.33,26.78.06,55.85-6.35,84.74-14.27s57.44-17.28,83.46-23.25c16.63-3.81,33.36-7.64,50.19-10.6,19.95-3.53,40-5.86,60.28-5.54l2.35.05c11.54.3,23.92,1.83,32.55,9.5,7.84,7,11,17.66,13.89,27.76C2832.4,1299.47,2907.61,1601,2867,1900Z"/><path class="cls-17" d="M2231.11,1932.16a630.57,630.57,0,0,0-8.74,64.07l-119.62-1q.61-12.32,2.1-24.57l22.87-2.43c.27-106.24-41.58-203.45-96.87-291.6-12.87,50.7-20.45,107.62-45.86,153.69l-11.9-4.94-17.83-7.39c-32.49-13.49-76.6,24.57-96.65,46.84-1.7,1.89-3.36,3.82-5,5.78-12.1,14.72-21.21,31.15-23.67,48.16-2.24,15.46,1,31.38,12.45,47a121.75,121.75,0,0,0,24.88,24.73c1.24.95,2.48,1.87,3.75,2.78,5.43,3.88,11.1,7.45,16.86,10.75-4.71-.78-11.1-5.62-15.82-6.4-5.85,7.64-17.75,5.09-26.79,1.8l-18-6.53L1724,1955.25c-5.75-2.1-11.55-4.21-16.65-7.59a65.79,65.79,0,0,1-22.5-24.21c-24.44-45.92,11.23-116.12,22.87-160,12.72-48,32.33-98.83,35.7-148.23a329.14,329.14,0,0,1,35.19-127.59,914.82,914.82,0,0,0,81.75-241.93c13.06-69.43-4.31-159.38,44.83-216.87,20.39-23.84,50.74-34.24,81.49-35.21,44.28-1.4,81.81-20.37,119.35-40,19.53-10.24,39.06-20.65,59.53-28.88,0,0,15.34,66.84,31.1,123s40.48,767.23,40.48,767.23C2249.47,1852.54,2238.49,1893.25,2231.11,1932.16Z"/><g class="cls-9"><path class="cls-10" d="M2794.82,1941.27c-1.27,12.17-.39,36.74-7.39,47s-12.5,12.4-20.36,12.65c-1.71,0-3.52,0-5.48-.05h-.16c-4.37-.15-9.49-.42-15.77-.14h-.28l-103.62-.89-67.15-.58c-4.93-2.26-9.71-4.73-14.28-7.39-27.14-15.72-18.26-5.22-13.9-28.45,3.56-19,14.3-33,14.14-54.83-.79-107.84-15-216.08-2.48-323.2-6.59,56.26,8.23,123.35,19,178.43,4.94,25.31,6.18,63.56,28,81.38,24.45,20,47.39,6.41,57.38-19.83,17.55-46.08,7.36-116.52,6.41-165.65-1.54-78-9.09-155.69-11.17-233.65-1.42-53-.83-106.92-4.49-159.81-1-14.15-27.62-138.66-23.05-141.57-12.11,7.69-18.72,41-32,42.75-16.32,2.17-43.32-42-48.39-54.34s-2.88-26.87-12.31-37.4c-32.9-36.67-53,14.6-50.91,42.35q8.05,109.71,16.14,219.42c2.22,30.19,4.46,60.48,10.85,90.07,2.62,12.11,5.95,24.17,6.78,36.54,1.07,15.77-1.91,31.51-4.9,47q-31.52,164.18-63,328.35c-10.5,54.7-22.49,112.28-52,158.29l-36.89-.32-55.58-.48h-1l-36.23-.31q-9.32-.06-18.64-.16,5.25-17.24,10.48-34.48c6.72-22.12,13.46-44.29,17.74-67,4.42-23.53,6.17-47.47,7.89-71.35,12.19-167.37,13.07-339.8,64.49-501,11.79-37,25.86-73.55,31.48-112,3.82-26.15,2.42-142.89-48.93-105-38.4,28.3-28.15,102.57-52.74,141.13a225.34,225.34,0,0,1-40.58-53.89l.7-146.1c15.39-25.65,36.32-49.28,65.13-54.65,44.53-6.85,72.7,33.24,115.3,33.33,26.78.06,55.85-6.35,84.74-14.27-9.48-9.76-18.78-17.5-27.29-21.82a.53.53,0,0,0-.1-.06,9.63,9.63,0,0,0-13.11,4.82l-2,4.66c-64,34.24-104.35-11.37-106.52-13.89,0,0-.05,0-.06-.07l0,0s43.37,26.64,75.52,7.93c22.15-12.89,77.64-67.37,109.86-121.47,22.63,0,45.24.65,67.82,2.26a229.55,229.55,0,0,1,31.17,4.11c58.36,12.36,55,48.61,64,93.12q1.23,6.19,2.87,12.58c14.3,55.23,62.54,94.43,74.46,151.72,5.71,27.48,3.78,55.9,2.55,83.94C2776.33,1459.74,2819.88,1701.59,2794.82,1941.27Z"/></g><path class="cls-18" d="M2515.4,1019.43c-19.48,6.56-42.78,16.08-43.44,24.29-.9,11.28-2.32,38.73-4.51,58.89a62.43,62.43,0,0,1-8.12,10.19c-5.32,5.25-12.31,9.24-19.8,9.43-5.47.13-10.76-1.73-16.12-2.82-3.89-.8-7.92-1.21-11.54-2.85a22.3,22.3,0,0,1-7.55-5.83c-.21-6.89-.29-13.26,0-17,.78-11.74-41.64-36.77-34.12-50.07s-36.28-32.86-36.28-32.86l24.73-26,0,0s0,0,.06.07a74.67,74.67,0,0,0,13.18,11.52c17.05,11.92,49.7,25.73,93.34,2.37a148.41,148.41,0,0,0,15.23-9.42,75.22,75.22,0,0,1,13,8.65h0A187,187,0,0,1,2515.4,1019.43Z"/><path class="cls-18" d="M2566.37,1955.43c-.33,17.08-.83,31.92-1.51,43.75l-164.49-1.42-93.45-.81c.14-5.28.31-11.22.49-17.77.19-6.86.4-14.38.63-22.45.25-8.32.5-17.22.79-26.63.85-28.24,1.89-60.92,3.12-95.34q.43-12.3.89-24.84c2.23-60.2,4.93-123.63,8-176.64.48-8.26,1-16.28,1.47-24,1.36-21.22,2.79-40.13,4.27-55.64.76-7.91,1.66-16.34,2.69-25.2,1-9.14,2.25-18.74,3.56-28.71,3.59-27.28,8-57.27,13-88,1.69-10.39,3.44-20.87,5.22-31.34,18.74-109.55,42.39-219.12,54.76-238.68,0,0-.32-4.9-.68-11.69-.31-5.72-.65-12.78-.85-19.36a22.3,22.3,0,0,0,7.55,5.83c3.62,1.64,7.65,2,11.54,2.85,5.36,1.09,10.65,2.95,16.12,2.82,7.49-.19,14.48-4.18,19.8-9.43a62.43,62.43,0,0,0,8.12-10.19c-.57,5.15-1.18,9.84-1.85,13.65,0,0,1.67,6.69,4.56,18.44,5.05,20.59,13.84,56.7,23.91,99.58,2.16,9.2,4.39,18.72,6.63,28.46,3.77,16.26,7.63,33.14,11.47,50.25,2.3,10.18,4.58,20.45,6.84,30.7,10.55,48,20.47,95.8,27.34,134.85,1.53,8.74,2.92,17,4.12,24.81,1.74,11.21,3.11,21.3,4,30,2.77,26.52,5.23,68.11,7.23,116.2.38,9.23.74,18.7,1.09,28.34,2,57.23,3.44,120.74,3.91,177.89q.09,13.38.14,26.23C2566.94,1909,2566.79,1934,2566.37,1955.43Z"/><g class="cls-19"><path class="cls-20" d="M2470.16,1134.7a263,263,0,0,1-35.88,3.16c-7.83.16-16-.11-23-3.63a30.62,30.62,0,0,1-6.16-4.14c-.31-5.72-.65-12.78-.85-19.36a22.3,22.3,0,0,0,7.55,5.83c3.62,1.64,7.65,2,11.54,2.85,5.36,1.09,10.65,2.95,16.12,2.82,7.49-.19,14.48-4.18,19.8-9.43a62.43,62.43,0,0,0,8.12-10.19c-.57,5.15-1.18,9.84-1.85,13.65C2465.6,1116.26,2467.27,1123,2470.16,1134.7Z"/></g><g class="cls-21"><path class="cls-16" d="M2329.28,1528.46c1-9.14,2.25-18.74,3.56-28.71,46-30.85,89.13-65.52,124.67-108.21,20.3-24.38,38-51.4,54.66-78.55,2.3,10.18,4.58,20.45,6.84,30.7-13.64,21.35-28.19,42.36-44.52,62C2433.6,1454.81,2382.12,1494.23,2329.28,1528.46Z"/><path class="cls-16" d="M2550.47,1503.35c-21,16.23-42.52,31.82-64.67,46.48-55.27,36.58-110.41,64.47-165,83.45.48-8.26,1-16.28,1.47-24,49.95-18.27,100.51-44.28,151.29-77.89,25-16.51,49.15-34.29,72.74-52.87C2547.88,1487.28,2549.27,1495.59,2550.47,1503.35Z"/><path class="cls-16" d="M2500.7,1262.74a703.9,703.9,0,0,1-154.83,149.06c1.69-10.39,3.44-20.87,5.22-31.34a682.75,682.75,0,0,0,143-146.18C2496.23,1243.48,2498.46,1253,2500.7,1262.74Z"/><path class="cls-16" d="M2434.63,1768.6c-39.43,23.78-80.46,45.57-122.68,66.16q.43-12.3.89-24.84c87.72-43.48,174.56-95.05,248.87-160.4.38,9.23.74,18.7,1.09,28.34Q2506.18,1725.53,2434.63,1768.6Z"/><path class="cls-16" d="M2566.85,1882a673,673,0,0,1-259.44,97.2c.19-6.86.4-14.38.63-22.45a651,651,0,0,0,258.67-101Q2566.8,1869.13,2566.85,1882Z"/></g><path class="cls-16" d="M2298.1,924.71l72.07,63.48s-101.1,137.71-86.36,207.42c0,0-61.21-48.17-71.41-91.81s9.07-166.48,9.07-166.48Z"/><path class="cls-22" d="M2231.11,1932.16a630.57,630.57,0,0,0-8.74,64.07l-119.62-1q.61-12.32,2.1-24.57l22.87-2.43c.27-106.24-41.58-203.45-96.87-291.6-12.87,50.7-20.45,107.62-45.86,153.69l-11.9-4.94-17.83-7.39c-32.49-13.49-76.6,24.57-96.65,46.84-1.7,1.89-3.36,3.82-5,5.78a57.57,57.57,0,0,0-4-4.33c-4.2-4.15-52.55-39-47.8-44.69,17.19-20.64,54.47-25.4,77.86-38.8,38-21.88,77.45-64.54,80.75-109.38,2.4-32.63,3.72-56.59,13.55-87.23,9-27.88,10.77-58.77,9.42-87.83-1.22-26,.72-52.55,1.09-78.58.22-16.16,8.76-59.06,1-72.63a196.83,196.83,0,0,1,23.76,68.83c-2.29-7-5.85-14.77-7.44-16.37,12.42,50.19,25,100.46,42,149.34,20.41,58.81,35.11,141.59,106,162.57,8.08-13.77-8.54-34.59-11.56-48.08-8.71-38.87-1.8-73.57-15.42-111.9-16.67-46.91-19.82-101.25-25.11-150.54a1798.84,1798.84,0,0,1-6-317.25c.41-6,.92-12.14,3.9-17.32,7.24-12.53,27.87-21.77,41.56-18.37-17-4.22-16.33-75.4-28.57-91-.88-1.12-1.82-2.25-2.63-3.43,19.53-10.24,39.06-20.65,59.53-28.88,0,0,15.34,66.84,31.1,123s40.48,767.23,40.48,767.23C2249.47,1852.54,2238.49,1893.25,2231.11,1932.16Z"/><path class="cls-23" d="M2265.77,1996.6l-13.72-.12-13.87-.12-15.81-.13-4,0c-1.28-42.67-2.61-99.35-1.51-122.18,1.88-38.72-46.82-276.64-62.44-344.71s-27.48-201.71-30-256-15.61-172.37-16.23-193.6c-.61-20.89,69.55-49.92,71.74-50.83-1.6.35-40,8.69-44.27-5.38-2.93-9.63,5-60.88,10.5-93.55,8.77,20.6,21.23,43.62,29.39,44.91,10.74,1.7,5.17,22.15,88.63-16.75-25.79,160.31-7,629.2,1.37,674.89C2274.21,1680,2267,1952.41,2265.77,1996.6Z"/><path class="cls-20" d="M3324.75,1997.55s-81.34,29.1-152.88,12.46,34.26-189.81,39.67-189.36,146.49,72,129.85,124.43Z"/><path class="cls-24" d="M1995.39,627.56s65.51-31.89,75.85-37.8,21.86,33.08,21.86,33.08l-41.36,20.27Z"/><path class="cls-25" d="M1995.39,627.56s65.51-31.89,75.85-37.8,21.86,33.08,21.86,33.08l-41.36,20.27Z"/><path class="cls-26" d="M2589.36,905c-2.5,11.83-24,36.46-52.47,60.66A418.09,418.09,0,0,1,2493.47,998h0a75.22,75.22,0,0,0-13-8.65,148.41,148.41,0,0,1-15.23,9.42c-19.54,10.45-36.86,13.46-51.58,12.53a81.92,81.92,0,0,1-41.76-14.9c-34.92-49.08-65.22-58.95-65.69-59.09h0c-16.05,8.3-29.93,15.15-42,20.75-83.46,38.9-77.89,18.45-88.63,16.75-8.16-1.29-20.62-24.31-29.39-44.91-4.41-10.38-7.88-20.14-9.4-26.21-3.68-14.74-20.12-74.21-26.11-95.83l-2.18-7.89a21.89,21.89,0,0,1-6.21.48c-10-.62-20.21-7.47-25.51-14.94-6.42-9,13.64-63.23,13.64-63.23L2079.61,688c-18.73-37.46-18-124.66-14.53-187,2.2-39.86,5.5-69.55,5.5-69.55l286.05-76,121.58,134.09L2495,508.05,2557,637.35a14.74,14.74,0,0,1,.54,2.81c.7,5.83,1.29,22.23-4.42,63.12-5.49,39.39,18.54,107.33,30.49,155.56C2588.56,878.69,2591.43,895.2,2589.36,905Z"/><g class="cls-9"><path class="cls-27" d="M2480.5,618.36c-2.21,3.47-7.08,4.43-11,3.31s-7.24-3.87-10.38-6.53c-16.37-13.87-19.07-17.77-40-14.12-17.32,3-34.56,6.74-51.74,10.43-12.5,2.69-118,28.43-115.47,46.38,1,7.38,7.17,7.4,7.47,14.85a384.73,384.73,0,0,1-.42,38.72c-1,16.4-10.88,17.55-24.9,21.88-4.05,1.26-45.17,12.09-46.19,8.66,12.14,40.89-23.08,42.5-52.66,58.95-8.28,4.6-24.76,15.84-26.46-.66-1.95.09-4.31,0-6.36.22,20.57-2.3,56.35-10.17,70.71-19.86,29.62-20-30.64-43.93-38.42-59-11.49-22.26-16.3-47.43-37.13-63.67-4.83-3.76-13.37-8.7-13-14.81,7.26-3.81,16-.3,24,1.16,10.49,1.9,21.26.16,31.77-1.59,75.88-12.63,152.2-25.36,224.77-50.85,35.69-12.53,73.64-28.32,110-18,2.77.79,5.66,1.84,7.39,4.13,1.89,2.5,2,5.88,1.71,9C2482.9,603.3,2489.33,604.49,2480.5,618.36Z"/></g><g class="cls-9"><path class="cls-27" d="M2478.21,489.56a1178.67,1178.67,0,0,0-23.31,118.51c-20.6-28.94-30.74-63.36-32.23-98.39-12,1.57-20.71,11.57-31.18,16.88a102,102,0,0,1-38.81,10.91q5.25-7.87,10.49-15.76c-19.44,5.19-47.35,10.19-66.64,2.68,2-12,12.46-25,17.19-36.93,2.32-5.85,6.69-37.79,10-39.89-32,20.3-67.61,31-105.5,29-4.32-.22-.65-1.44-.37-1.56l-2,.51c-33.78,8.8-65.31,24.16-100.68,26.44-16.7,1.08-33.44.35-50.15-1,2.2-39.86,5.5-69.55,5.5-69.55l286.05-76Z"/></g><g class="cls-9"><path class="cls-27" d="M2583.65,858.84a285.75,285.75,0,0,1-50.9,64.09c1.08-13.45-3.94-16.36-2.87-29.81,35.74-43.71,31.29-96.64,16-147.16-7.94-26.16-21.43-48.61-13.64-77l15.89-25c3.14-1.27,6.3-2.56,9.49-3.75.7,5.83,1.29,22.23-4.42,63.12C2547.67,742.67,2571.7,810.61,2583.65,858.84Z"/></g><path class="cls-20" d="M2611.57,694.37c-3.85-21.11-12.29-42.53-9.87-63.82,2.91-25.6,11.87-50.16,13.53-76,3.23-50.42-7.76-54.31-7.76-54.31,5.82-98.91-25.22-139-49.14-173.25-15.63-22.42-37.11-27.19-60.14-26.18-5.72.23-11.52.85-17.36,1.63-.55-1.33-1.13-2.66-1.72-4-12.45-27.86-33.31-53.84-59.82-69.13-14.24-8.21-30.88-13.22-47.42-12.44-7,.33-35.74,14.3-38.57,13.24-97.9-36.51-191,24.15-248.26,100.36-3.28,4.36-6.74,8.73-11.29,11.74s-10.42,4.51-15.55,2.63c3.33,4.23,7.16,8.3,11.83,10.87a21.81,21.81,0,0,0,3.1,1.44,17.85,17.85,0,0,0,13.35-.29,9.11,9.11,0,0,0-1,2.51c-3.71,12.71-16.83,19.88-28.87,25.4s-24.35,10.71-37.46,11a42.87,42.87,0,0,1-19-3.82A30.13,30.13,0,0,1,1985.83,379c-12.87,11.37-16.15,30.07-16.4,47.24,0,1,0,1.94,0,2.92,0,7,.68,14.1,3.52,20.48a26.94,26.94,0,0,0,4.41,6.89,22.55,22.55,0,0,0,2.05,2.1,19.53,19.53,0,0,0,11.25,5.25c-.82,4.11,1.91,8.29,5.52,10.41s7.91,2.67,12.08,3.06q6.77.63,13.54.95a286,286,0,0,0,38.17-.79c5.15-.44,5.81-3.37,7.05-8.38l3.07,1.19c18.5,7.14,42.25,14.75,61.59,10.15,13.9-3.29,26.8-7.8,38.39-16.14,7.62-5.48,15.31-14.85,25.22-16.38a17.62,17.62,0,0,1,3.51-.22c4.42.18,8.48,2.33,12.74,3.58a93.74,93.74,0,0,0,18.43,3.34c37.35,3.11,83.67-12.53,106.27-41.83a68.76,68.76,0,0,0,8.43-14c.07-.18.15-.35.23-.53-.05.13-.11.29-.16.45-1.36,4.78,1.1,22.88.21,28.94-1.56,10.5-2.13,21.11-4.7,31.61-4.47,18.21-15,30.69-28.18,43.49-1.94,1.88-3.92,3.76-6,5.52a39.4,39.4,0,0,1-12.57,7.64c35,1,70.46,1.54,89.83-33.48-.21,1.75-.43,3.49-.7,5.24-1.09,7.29-2.74,14.53-5.87,21.2-3.86,8.25-10.25,15.66-18.68,19.11a102.84,102.84,0,0,0,13.46-3.77c20.18-7.09,39.21-20.43,51.47-38.2,0,0,0,0,0,0a81.67,81.67,0,0,0,7.91-14.3c3-7,7.38-18.21,7.27-25.78,7.27,21.58,4.78,44.51,3.34,66.77-1.34,20.7,3,40.78,2.14,61-.51,12.27,1,20.24,6.46,31.55,3,6.18,16.07,22.57,14,29.57,3.15-10.84,6.6-22.2,7.78-33.46.55-5.3-2.23-18.45,1.7-22.72,9.58-10.42,25.51,6.16,30.84,14.23,16.35,24.75,15.06,57.07,22.39,84.8a161.78,161.78,0,0,0,8.26,24.43c1.75,4,12.2,17.22,11.77,20.6,2.27-17.62,13-45.43,19.45-62-2.08,16.44-6.64,46.56,10.09,57.18,4.76,3,15.73,5.07,21.3,6.91a3.6,3.6,0,0,0,.55.16c5.84,1.48,26.16,1.55,28.47,4C2618,719.66,2613.86,706.92,2611.57,694.37ZM2087.74,356.26a11.89,11.89,0,0,0,3.3-2.87C2089.52,356.81,2088.58,356.36,2087.74,356.26Z"/><path class="cls-28" d="M2186.33,450.75c7.51-5.17,14.69-10.29,21.47-15.86a205.62,205.62,0,0,0,35.86-37.76c5.22-7.05,10-14.49,14.75-22.24a83.1,83.1,0,0,1-9.09,25.8,105.5,105.5,0,0,1-37.69,39.65A83.93,83.93,0,0,1,2186.33,450.75Z"/><path class="cls-28" d="M2322.6,229.42a49.92,49.92,0,0,1,12.6,3.94,78.64,78.64,0,0,1,11.22,6.25,76.45,76.45,0,0,1,10.06,8,49.09,49.09,0,0,1,8.43,10.17,59.11,59.11,0,0,1-12.27-4.69,103.44,103.44,0,0,1-21-14.11A59.21,59.21,0,0,1,2322.6,229.42Z"/><path class="cls-28" d="M2605.72,497.65a32.89,32.89,0,0,1,2.72,13.9,45,45,0,0,1-9.08,26.52,32.75,32.75,0,0,1-10.68,9.3c1.59-4.56,3.32-8.58,4.88-12.63s3-8,4.42-12,2.64-8,3.86-12.16S2604.2,502.23,2605.72,497.65Z"/><g class="cls-9"><path class="cls-27" d="M2421.15,1004.79a5,5,0,0,1-.72,4,6.28,6.28,0,0,1-3.56,1.76l-3.22.81a81.92,81.92,0,0,1-41.76-14.9c-34.92-49.08-65.22-58.95-65.69-59.09,1-.53,122.42-67.62,127.94-132.31,1.16,18.82-5.28,40.05-13.94,56.81-16.55,32-81.84,109.27-19.62,128.35C2409.09,992.8,2419.67,996,2421.15,1004.79Z"/></g><path class="cls-29" d="M2151.05,787a74.46,74.46,0,0,0,11-3.85,31.46,31.46,0,0,0,8.85-6,26.47,26.47,0,0,0,5.85-8.75,52.26,52.26,0,0,0,3-11.16,22,22,0,0,1-4.91,24,24,24,0,0,1-11.42,6.14A24.43,24.43,0,0,1,2151.05,787Z"/><g class="cls-30"><path class="cls-28" d="M2598.32,724.93a3.6,3.6,0,0,1-.55-.16c-5.57-1.84-16.54-3.89-21.3-6.91-16.73-10.62-12.17-40.74-10.09-57.18-6.44,16.54-17.18,44.35-19.45,62,.43-3.38-10-16.65-11.77-20.6a161.78,161.78,0,0,1-8.26-24.43c-7.33-27.73-6-60-22.39-84.8-5.33-8.07-21.26-24.65-30.84-14.23-3.93,4.27-1.15,17.42-1.7,22.72-1.18,11.26-4.63,22.62-7.78,33.46,2-7-11.06-23.39-14-29.57-5.43-11.31-7-19.28-6.46-31.55.86-20.18-3.48-40.26-2.14-61,1.44-22.26,3.93-45.19-3.34-66.77.11,7.57-4.31,18.81-7.27,25.78A81.67,81.67,0,0,1,2423,486c8.1-19.16,13-39.48,17.89-59.7,5.15,10.51,14,20.07,18.38,30.59,5.29,12.71,5.67,28.51,10.15,41.81,3.37,10,8.59,20.88,18.65,24.05,5,28.12,15.27,37.76,43.25,43.51,13,2.68,11.72,7.86,17.3,19.86,2.15,4.62,3.15,9.69,4.13,14.69q4.88,24.83,9.74,49.63c11.85-13.33,16.86-39.54,26.86-54.35a151.92,151.92,0,0,0-1.91,15.34c-3.36,37.33-7.79,71,7.42,106.47C2595.91,720.23,2597,722.6,2598.32,724.93Z"/></g><path class="cls-23" d="M2534.48,606l-18.27,14.61-42.54-42.06s-244.86,57.59-237.92,66.58,15.85,77.59,15.85,77.59c-23.54,8.68-55.22,12.3-87.11,13.26a26.77,26.77,0,0,1-25.3-16c-2.19-5-3.56-9.13-3.56-9.13a181.14,181.14,0,0,0-29.12-53.13c-2.11-2.62-10.41-14.18-14.72-12.93-11,3.17,3.37,36.17,3.17,41.8-.05,1.74-.16,3.49-.31,5.25a203.67,203.67,0,0,1-5.4,31.48c-1.6,6.49-2.9,10.71-2.9,10.71-24.95-1.77-43.94-4.06-50.24-4.88a3.78,3.78,0,0,1-3.06-2.4c-3.33-8.5-16.18-40.92-27.54-62.75-13.16-25.33-10.12-36.46-10.12-36.46,67.34-18.23,105.31,8.09,105.31,8.09,113.43-27.34,121.67-8.09,121.67-8.09l239-75.45a40.72,40.72,0,0,1,38.05,7.24C2520.87,576.89,2534.48,606,2534.48,606Z"/><path class="cls-28" d="M2234.58,825.71a78.21,78.21,0,0,1-9.41,29.61,80.17,80.17,0,0,1-35.08,33.59c-6.23,3-17.43,7-21.82,1.67a24.09,24.09,0,0,1-3.65-6.3c-1.69-4.07-2.67-8.53-4.14-12.71-2.25-6.44-5.33-16.7-9.87-21.79A435.25,435.25,0,0,0,2234.58,825.71Z"/><path class="cls-17" d="M3540.73,1668.34c-2.11,37.75-67.11,136.29-96.46,171.94s-86,132.11-119.52,157.27c0,0,0-22.32-12.71-48.82-13-27.06-39.17-58.47-92.14-74.9-26.37-8.17-44.84-15.29-58.55-20.92-39.8-16.37-39.35-20.27-75-1.46-.09-.5-.16-1-.24-1.52,0-.24-.08-.49-.11-.72,9-13.69,44.14-63.73,106.7-113.77,0,0-111.07-110.7-155.12-237.68.13-.35.14-.45-.05-.12,0,0,0,.07.05.12-.43,1.09-2.11,4.63-3.08,5.29-1.28.87-1.51,2.65-1.57,4.2-1.13,27,9.46,52.91,16.12,79.12,8.72,34.28,11.28,69.35,11.72,104.61.6,47.08,12.19,90.12,21.13,135.2q2.27,11.43,4.1,23c-.79,1.19-1.37,2.12-1.76,2.73-19.5,21.09-37.59,47.4-34.06,45.32,5.41-3.17,28.87,0,28.87,0a65.11,65.11,0,0,1,13.23,1.1c3.26,31.74,5.35,63.73,8.1,95,.08.9.15,1.79.2,2.67s.12,1.76.16,2.62.08,1.56.11,2.33c0,.18,0,.35,0,.51,0,.78,0,1.56.06,2.33-85.94-.73-178-1.54-274.44-2.37l-42.87-.38-11.83-.1c-.45-.7-.9-1.4-1.32-2.1s-.78-1.27-1.17-1.92c-.82-1.38-1.63-2.78-2.41-4.2-1.08-2-2.12-4-3.14-6.06q-.66-1.34-1.29-2.67c-.31-.69-.63-1.39-1-2.09s-.66-1.51-1-2.26-.66-1.52-1-2.27-.63-1.54-.94-2.31-.64-1.55-.93-2.33c-.91-2.32-1.78-4.7-2.6-7.09-.22-.6-.42-1.2-.63-1.82-.36-1.09-.73-2.19-1.08-3.29-.22-.7-.44-1.4-.65-2.1-.28-.88-.55-1.76-.82-2.65-.47-1.59-.92-3.2-1.37-4.82s-.91-3.35-1.33-5-.83-3.33-1.23-5c-.2-.85-.39-1.7-.58-2.54s-.43-1.91-.63-2.85c-.16-.75-.31-1.49-.47-2.24s-.36-1.72-.52-2.56c-.37-1.83-.72-3.65-1-5.48-.3-1.59-.58-3.2-.85-4.8l-.18-1.17c-.1-.58-.19-1.15-.28-1.73-1.22-7.62-2.17-15.26-2.93-22.78-.09-.94-.18-1.87-.27-2.82-.18-1.87-.33-3.74-.49-5.59-.08-.92-.14-1.86-.21-2.78s-.13-1.85-.2-2.76-.12-1.83-.18-2.74-.11-1.83-.17-2.73c-.3-5.45-.51-10.77-.64-15.93,0-.85-.05-1.71-.06-2.56q-.12-6.37-.09-12.37l-65.49-741.9L2665.27,916l-3.13-79.29c1.61,5.79,26.46,14.07,56.82,24.38,9.36,3.16,19.26,6.54,29.15,10.09,6,2.15,15,3.63,26.11,4.7,66.67,6.36,211.15-2.23,263.26,29.22,60.8,36.69,88.07,138.2,100.65,155.07s254.77,323,283.08,367,46.12,111.14,52.41,117.43S3542.82,1630.6,3540.73,1668.34Z"/><path class="cls-16" d="M2641.4,977.34c-3.42,64.16-12.62,133.06-35.3,161.26l-.27.33s-.11,13.82-20.54-19.33c-1.08-1.74-2.2-3.6-3.38-5.6-14.73-24.9-40.75-65.65-66.51-94.57-2.55-2.87-5.11-5.63-7.65-8.24-9.48-9.76-18.78-17.5-27.29-21.82a.53.53,0,0,0-.1-.06,9.63,9.63,0,0,0-13.11,4.82l-2,4.66c-64,34.24-104.35-11.37-106.52-13.89,0,0-.05,0-.06-.07l0,0s43.37,26.64,75.52,7.93c22.15-12.89,77.64-67.37,109.86-121.47,14.54-24.41,24.34-48.73,24.2-69.12l-9-35.6s27.43-2.77,46.59,29S2642,843.11,2642,843.11s.65,13.35,1,34.51C2643.41,902.88,2643.41,939.28,2641.4,977.34Z"/><path class="cls-22" d="M3405.79,1623.67c-2.77-1.89-6.24-2.34-9.56-2.73-34-4-65.84-9.61-100.23-9.94-154.7-1.51-225.77-118.38-243-260.1-4.9-40.45-21-75.48-27.32-114.27-1.07-6.51-5.31-15-11.58-12.86-15.36,81.23-28.63,167.72-38.69,249.19-7.6,61.71,5,125.22-21.68,183.3-20.74,45.13-43.34,91.51-97.11,101.25-21.78,3.93-48.6-1.82-57.19-22.21-17.27-5.68-11.25-2.62-16.25-20.1s-4.27-36-3.71-54.21c2.85-94.14,20.12-187,34.8-279.83,14.26-90.14,14-183.35,7.38-274.28-1.67-23.08-3.9-46.21-2.64-69.33.79-14.69,2.79-30.33-4.05-43.36s-27.21-19.68-36.24-8.06c-7.36-13.61,15.87-24,20-38.94,3.26-11.6-5.83-22.52-12.23-32.72a83,83,0,0,1-12.35-38.6c-11.14-1.07-20.1-2.55-26.11-4.7-9.89-3.55-19.79-6.93-29.15-10.09-20.74,9.12-38.51,22.85-48.73,42.91a82.86,82.86,0,0,0-5,12l7.35,186.62,65.49,741.9q0,6,.09,12.37c0,.85,0,1.71.06,2.56.13,5.16.34,10.48.64,15.93.06.9.11,1.81.17,2.73s.11,1.82.18,2.74.13,1.83.2,2.76.13,1.86.21,2.78c.16,1.85.31,3.72.49,5.59.09,1,.18,1.88.27,2.82.76,7.52,1.71,15.16,2.93,22.78.09.58.18,1.15.28,1.73l.18,1.17c.27,1.6.55,3.2.85,4.8.32,1.83.67,3.65,1,5.48.16.84.34,1.7.52,2.56s.31,1.49.47,2.24q.3,1.41.63,2.85c.19.84.38,1.69.58,2.54.4,1.67.8,3.34,1.23,5s.87,3.37,1.33,5,.9,3.23,1.37,4.82c.27.89.54,1.77.82,2.65.21.7.43,1.4.65,2.1.35,1.1.72,2.2,1.08,3.29.21.62.41,1.22.63,1.82.82,2.39,1.69,4.77,2.6,7.09.29.78.6,1.56.93,2.33s.62,1.54.94,2.31.65,1.52,1,2.27.67,1.51,1,2.26.65,1.4,1,2.09q.63,1.34,1.29,2.67c1,2.06,2.05,4.08,3.14,6.06.78,1.42,1.59,2.82,2.41,4.2.39.65.77,1.28,1.17,1.92s.87,1.4,1.32,2.1l11.83.1,42.87.38c96.43.83,188.5,1.64,274.44,2.37,0-.77,0-1.55-.06-2.33,0-.16,0-.33,0-.51,0-.77-.07-1.55-.11-2.33s-.09-1.74-.16-2.62-.12-1.77-.2-2.67c-2.75-31.24-4.84-63.23-8.1-95a65.11,65.11,0,0,0-13.23-1.1s-23.46-3.19-28.87,0c-3.53,2.08,14.56-24.23,34.06-45.32.39-.61,1-1.54,1.76-2.73q-1.85-11.6-4.1-23c-8.94-45.08-20.53-88.12-21.13-135.2-.44-35.26-3-70.33-11.72-104.61-6.66-26.21-17.25-52.11-16.12-79.12.06-1.55.29-3.33,1.57-4.2,1-.66,2.65-4.2,3.08-5.29,44,127,155.12,237.68,155.12,237.68-62.56,50-97.69,100.08-106.7,113.77,0,.23.07.48.11.72.08.51.15,1,.24,1.52,35.7-18.81,35.25-14.91,75,1.46,1.1-1.65,2.28-3.28,3.55-4.86,30.76-38.47,76.86-78.82,116.1-109.46,36.78-28.74,66.39-61.94,109.28-82.87,6.52-3.17,13.32-6.59,17.39-12.58S3411.76,1627.77,3405.79,1623.67Z"/><path class="cls-23" d="M2632.09,874.58a191.75,191.75,0,0,1-7.88-55.81,11.76,11.76,0,0,1,.91-5.43c6.93-13.44,31,11.58,37.08,15.46,20.25,12.85,59.72,48.11,85.93,42.37,25.81-5.66,43.29,76.12,43.29,76.12L2755.2,981s45,8.12,50,21.23,3.12,354.71-22.48,464.62-45.2,382.89-44.14,400.72c.19,3.23-1.45-2.91-1.64-3.42-8.11-22.2-10.32-48.45-14.41-71.59-7.32-41.46-13.55-83.13-18.42-125-2.63-22.57-2.48-46.42-6.72-68.69-3.5-18.4-9.92-34.51-12-53.7a1324.22,1324.22,0,0,1-7.84-153.19c.11-14.38-4.67-28.44-5.63-43a369.12,369.12,0,0,1,.88-55.74s-29.4-223.52-29.56-317.24c-.05-30.49-3.19-59.89-8.09-89.81C2634.74,883.9,2633.58,879.77,2632.09,874.58Z"/><path class="cls-31" d="M3035.91,1490.17a299.43,299.43,0,0,1-13.17-52.86c-1.35-9-2.47-18.07-3.09-27.18s-.93-18.21-1-27.29c-.15-18.16.44-36.21.35-54.15s-.81-35.81-3.48-53.5l5-1c.59,3.52,1.36,7,2.28,10.48s1.94,6.92,3.16,10.32,2.54,6.77,4.06,10.07,3.13,6.57,4.89,9.77a93.24,93.24,0,0,1-6.35-9,100.29,100.29,0,0,1-5.38-9.68q-2.43-5-4.39-10.23c-1.27-3.49-2.36-7.06-3.29-10.67l5-1c4.21,17.83,6,36.17,6.52,54.35s0,36.31-.15,54.3.1,35.87,1.73,53.76C3030.1,1454.49,3032.73,1472.31,3035.91,1490.17Z"/><path class="cls-31" d="M2037.9,1668.49c.5-5.4,1.06-10.8,1.48-16.18s.67-10.76.57-16.1c0-2.66-.19-5.32-.43-8s-.56-5.26-1-7.84a93.13,93.13,0,0,0-4.22-15.21c-1.76-5-3.8-10-5.84-15-1-2.51-2-5.06-3-7.61s-2-5.08-2.86-7.66l-2.72-7.73c-.88-2.58-1.67-5.19-2.52-7.79l-1.24-3.9-1.15-3.93c-.75-2.63-1.55-5.24-2.24-7.88-2.89-10.54-5.26-21.21-7.36-31.93s-3.59-21.55-4.82-32.41-1.87-21.76-2.23-32.66c-.2-10.92-.11-21.83.46-32.71l.77-14.79,4.54,13.92,4.5,13.84c1.52,4.61,2.94,9.25,4.41,13.88s2.89,9.27,4.3,13.91,2.8,9.31,4.14,14q-3-6.66-5.82-13.37c-1.91-4.46-3.81-8.93-5.66-13.42s-3.75-9-5.56-13.45l-5.46-13.5,5.31-.87c.16,10.77.49,21.51,1.25,32.23.43,5.36.77,10.72,1.36,16.06s1.16,10.67,1.79,16c.33,2.66.73,5.31,1.09,8s.78,5.31,1.22,7.95.8,5.31,1.3,7.94l1.45,7.92c2,10.53,4.34,21,7,31.41s5.61,20.72,8.91,30.94c.77,2.57,1.71,5.09,2.53,7.65s1.68,5.1,2.58,7.64c1.78,5.1,3.61,10.26,5.18,15.56a95.3,95.3,0,0,1,3.37,16.32c.32,2.77.47,5.55.52,8.32s-.08,5.53-.28,8.27a141.59,141.59,0,0,1-2.14,16.25C2040.34,1657.92,2039.15,1663.21,2037.9,1668.49Z"/><path class="cls-26" d="M3205.23,1953.2v29.52c-3.3,8.25-12.49,15.42-20.39,20.35-9.24,2.69-19.61,6.53-26.5,12.08-14.88,12-16.68,23.19-73,23.37s-74.83-6.87-74.83-6.87-99.65,9.58-115.43-13.7,0,9.19,0,9.19l-147-2.7s-17.14-17.14-9.92-27c5.65-7.78,38.15-18,60.41-22.78a127.87,127.87,0,0,1,15.33-2.48c11.09-.85,31.53-30,45.09-51.38,7.93-12.51,13.52-22.37,13.52-22.37l89.27-12.81,66.73,39.08,93.05,4.12h0l40.43,1.78.47,0c.49.32,1,.65,1.45,1Z"/><path class="cls-32" d="M3205.23,1953.2v29.52c-3.3,8.25-12.49,15.42-20.39,20.35-9.24,2.69-19.61,6.53-26.5,12.08-14.88,12-16.68,23.19-73,23.37s-74.83-6.87-74.83-6.87-99.65,9.58-115.43-13.7,0,9.19,0,9.19l-147-2.7s-17.14-17.14-9.92-27c5.65-7.78,38.15-18,60.41-22.78l10-22.92c10.77-12,20.68-24,39.39-28.37l11-2.57q35.05-8.22,70.07-16.48c12-2.82,25.84-5.28,35.6,2.21,7.74,5.93,10.35,16.26,15.74,24.37a40.36,40.36,0,0,0,23.61,16.47,37.46,37.46,0,0,0,8,1.13c.51,0,1,0,1.52,0a8.82,8.82,0,0,0,.13,2.62c1.59,8.68,13.27,23.81,16.2,30.31,9,19.94,21.8,42.25,46.57,43.21,23.13.91,81.64-7.94,85-34.34,1.56-12.18-1.77-23-8.3-32.69-7.31-10.91-18.66-20.39-31.6-28.82h0c-20.08-13.09-44-23.61-62.68-32.9a164.29,164.29,0,0,1,20.13,1.41,65.11,65.11,0,0,1,13.23,1.1,111.36,111.36,0,0,1,17,4.54l52.76,27.63.47,0c.49.32,1,.65,1.45,1Z"/><path class="cls-33" d="M3023.08,1968.53a132.38,132.38,0,0,0-9.4-17.43c-.57-.94-1.13-1.83-1.65-2.65-2-3.1-3.37-5.17-3.37-5.17s-1.37,1.15-4.66,4c-3.52,3.06-9.26,8.11-17.88,15.8-16.68,14.88-50,36.52-65.82,37.87s-25.26-18.48-25.26-20.74,62.22-72.14,62.22-72.14l-67.63,16.54s-30.66,41.18-42.37,68.23-62.22,12.61-62.22,12.61l13.52-30.88,10-22.92,17.9-40.86c-.55.53-18,17.69-46,53.19-28.41,36.07-64.74,10.82-64.74,10.82l17.85-46c-24.79,15.33-66.27-5.86-64-16.23s92-76.64,101.89-84.76,73.94-14.43,73.94-14.43,51.85-17.58,67.63-20.74,40.58,41.49,40.58,41.49h19.83c10.37,0,36.07,48.68,36.07,48.68,11.27,0,14.43,21.65,22.54,20.75,3.43-.38,10.94-4.15,18.43-8.39-.93,1.7-1.12,2.48-.4,2,1.64-1,4.94-1.33,8.74-1.39a164.29,164.29,0,0,1,20.13,1.41,65.11,65.11,0,0,1,13.23,1.1,111.36,111.36,0,0,1,17,4.54l52.76,27.63,1.92,1,41.32,21.65"/><path class="cls-29" d="M3023.08,1968.53a108,108,0,0,0-6.79-12.85q-1.87-3.12-3.85-6.18c-1.31-2-2.67-4-4-6.07l.39,0c-3.71,3.25-7.38,6.56-11,9.87l-11,9.89a221.68,221.68,0,0,1-23.51,18.15c-4.12,2.76-8.27,5.45-12.56,7.95-2.12,1.29-4.31,2.46-6.47,3.68s-4.39,2.33-6.66,3.35a67.72,67.72,0,0,1-14.1,5.17l-1.9.3a13.43,13.43,0,0,1-1.92.23,19.65,19.65,0,0,1-3.91-.19,20.93,20.93,0,0,1-7.3-2.69,34.23,34.23,0,0,1-10.81-10.71,32.41,32.41,0,0,1-3.56-6.85,5,5,0,0,1-.28-1.21.71.71,0,0,1,0-.27,2.57,2.57,0,0,1,.11-.48l.06-.14,0-.08.08-.16c.12-.21.2-.32.3-.49.38-.56.75-1.06,1.13-1.57.76-1,1.54-2,2.32-2.94,6.24-7.71,12.69-15.19,19.14-22.68q19.4-22.44,39-44.65l1.7,2.83-67.56,16.82,1.14-.76q-10.9,15-21,30.64a322.65,322.65,0,0,0-18.44,32l-1.91,4.16-.47,1-.56,1.14a17.45,17.45,0,0,1-1.22,2.25,25.1,25.1,0,0,1-6.92,7.48c-5.57,4-12.11,5.77-18.49,6.62a85.77,85.77,0,0,1-19.15,0q-4.74-.46-9.42-1.31c-3.13-.57-6.18-1.2-9.34-2l-2.78-.76,1.16-2.68,41.28-94.75,4.39,3c-8.26,8.33-16.17,17.29-23.89,26.3-3.86,4.51-7.64,9.1-11.41,13.69l-5.61,6.94-2.77,3.5c-.94,1.17-1.8,2.31-2.83,3.51a58.34,58.34,0,0,1-13.86,12.56,49.61,49.61,0,0,1-8.51,4.23,46.83,46.83,0,0,1-9.26,2.31,49.79,49.79,0,0,1-18.81-1.2,61.46,61.46,0,0,1-8.88-3c-1.43-.62-2.85-1.28-4.24-2-.69-.36-1.38-.74-2.06-1.14s-1.33-.78-2.1-1.3l-1.83-1.24.81-2.1,17.87-46,4.09,3.41a40.56,40.56,0,0,1-17.9,5.61,61.23,61.23,0,0,1-18.34-1.46,71.93,71.93,0,0,1-17.18-6.26,51.28,51.28,0,0,1-7.86-5,28.12,28.12,0,0,1-3.57-3.29,14.6,14.6,0,0,1-2.94-4.54,8,8,0,0,1-.53-3.32c0-.3.07-.62.12-.93s.2-.66.31-1a10.81,10.81,0,0,1,.71-1.37,27.35,27.35,0,0,1,3-3.88c2.07-2.29,4.22-4.36,6.4-6.4,4.36-4,8.84-7.9,13.35-11.7,9-7.58,18.24-14.92,27.5-22.18s18.59-14.4,27.93-21.52l14-10.66,7-5.34,1.72-1.34.84-.67.21-.16.28-.21.58-.4a22.92,22.92,0,0,1,4.45-2.2,115.76,115.76,0,0,1,17.43-4.62c5.82-1.16,11.64-2.14,17.48-3,11.67-1.76,23.34-3.19,35.09-4.38l-.54.12q15.56-5.22,31.2-10.11,7.82-2.46,15.69-4.81c5.24-1.56,10.51-3.07,15.86-4.42,1.33-.35,2.69-.66,4.06-1l1-.22c.35-.08.83-.11,1.24-.16a11.67,11.67,0,0,1,2.51,0,20.09,20.09,0,0,1,8.34,3.62,65,65,0,0,1,12.16,11.71,160.06,160.06,0,0,1,9.86,13.32c3.07,4.59,5.95,9.24,8.68,14.08l-1.65-1,10.18,0,5.09,0h4.45a6,6,0,0,1,.89.06,8.54,8.54,0,0,1,3,1.15,16.66,16.66,0,0,1,2.3,1.65,38.53,38.53,0,0,1,3.81,3.74,95,95,0,0,1,6.42,8.13c4,5.58,7.62,11.36,11.11,17.22s6.82,11.77,10,17.81l-1.37-.82a10.94,10.94,0,0,1,7,2.7,24.72,24.72,0,0,1,4.55,5.27c1.27,1.87,2.37,3.79,3.49,5.65a36.43,36.43,0,0,0,3.55,5.17,7.53,7.53,0,0,0,2.09,1.74,2.53,2.53,0,0,0,.55.22,2.1,2.1,0,0,0,.54.12,3.87,3.87,0,0,0,1.2-.06,30.9,30.9,0,0,0,5.86-2.1c3.92-1.76,7.76-3.81,11.57-5.91l3.9-2.16-2.16,3.88c-.16.27-.31.55-.44.82a5.16,5.16,0,0,0-.27.64v-.16s0-.06,0-.21l-.06-.16a1.17,1.17,0,0,0-.14-.22,1.1,1.1,0,0,0-.49-.35,1,1,0,0,0-.63,0,.32.32,0,0,0-.11,0h0l.27-.15a6.8,6.8,0,0,1,1.11-.45,18.79,18.79,0,0,1,4.19-.75,66.63,66.63,0,0,1,8.11-.08c5.36.23,10.66.76,16,1.48H3079a69.37,69.37,0,0,1,15.57,1.62,118.93,118.93,0,0,1,15,4.27l.06,0,0,0,47.84,25.46,47.77,25.57L3157,1928.48l-48.17-24.81.11,0a115.43,115.43,0,0,0-14.79-4,67.17,67.17,0,0,0-15.13-1.37h-.18c-5.22-.63-10.51-1.09-15.76-1.24a65.42,65.42,0,0,0-7.81.17,17,17,0,0,0-3.62.69,3.81,3.81,0,0,0-.73.31l-.17.09-.21.11-.34.13a1.43,1.43,0,0,1-.88,0,1.28,1.28,0,0,1-.59-.43.9.9,0,0,1-.16-.26,2,2,0,0,1-.09-.22,1.11,1.11,0,0,1,0-.34v-.23a2.54,2.54,0,0,1,0-.29,6.66,6.66,0,0,1,.45-1.21c.16-.33.32-.64.49-1l1.74,1.72c-3.82,2.18-7.67,4.3-11.7,6.18-1,.47-2,.92-3.09,1.33a22.66,22.66,0,0,1-3.35,1.05,6.89,6.89,0,0,1-2.06.11,4.09,4.09,0,0,1-1.05-.22,4.63,4.63,0,0,1-1-.38,10.42,10.42,0,0,1-3-2.37,39.18,39.18,0,0,1-3.92-5.57c-1.15-1.88-2.24-3.75-3.45-5.49a21.6,21.6,0,0,0-4-4.6,7.86,7.86,0,0,0-5-2h-.92l-.44-.82c-3.21-5.92-6.58-11.8-10.08-17.57s-7.15-11.47-11.09-16.89a93.66,93.66,0,0,0-6.25-7.78,34.2,34.2,0,0,0-3.47-3.36,8.5,8.5,0,0,0-3.55-2l-20.1.06h-1.08l-.56-1a189.46,189.46,0,0,0-18.34-26.63,61.29,61.29,0,0,0-11.42-10.87,16.28,16.28,0,0,0-6.54-2.86,7.5,7.5,0,0,0-1.57,0c-.27,0-.47,0-.79.1l-1,.22c-1.3.29-2.59.59-3.9,1-5.22,1.36-10.44,2.9-15.64,4.5s-10.4,3.23-15.59,4.91c-10.37,3.34-20.71,6.82-31,10.31l-.26.09-.28,0c-11.62,1.22-23.26,2.7-34.81,4.49-5.77.89-11.53,1.89-17.23,3a110.39,110.39,0,0,0-16.57,4.45c-.66.23-1.23.53-1.85.79-.3.14-.55.3-.83.44a4.24,4.24,0,0,0-.75.45l-.33.23-.17.11-.22.18-.88.7-1.75,1.38-7,5.39-14,10.72q-13.95,10.74-27.79,21.6c-9.21,7.26-18.37,14.58-27.32,22.11-4.46,3.77-8.88,7.58-13.12,11.53-2.11,2-4.18,4-6,6.06a22.23,22.23,0,0,0-2.4,3,5,5,0,0,0-.31.58s0,0,0,.07a.47.47,0,0,1,0,.16,2.62,2.62,0,0,0,.2,1,9.3,9.3,0,0,0,1.86,2.78,24.93,24.93,0,0,0,2.91,2.66,44.58,44.58,0,0,0,7,4.42,66.14,66.14,0,0,0,15.84,5.75,55.39,55.39,0,0,0,16.64,1.31,34.69,34.69,0,0,0,15.42-4.82l7.13-4.41-3,7.82-17.84,46-1-3.34c.47.32,1.12.71,1.7,1s1.23.7,1.85,1c1.25.67,2.54,1.26,3.84,1.83a55.21,55.21,0,0,0,8,2.74,44.17,44.17,0,0,0,16.68,1.1,41.59,41.59,0,0,0,8.07-2,44.18,44.18,0,0,0,7.49-3.7,53.38,53.38,0,0,0,12.53-11.36c.91-1.06,1.86-2.3,2.78-3.45l2.8-3.51,5.64-7c3.8-4.62,7.62-9.23,11.52-13.77,7.81-9.09,15.71-18,24.25-26.62l10.3-10.34-5.9,13.38-41.64,94.58-1.62-3.43c2.84.78,5.87,1.43,8.85,2s6,1,9,1.3a81.22,81.22,0,0,0,18,0c5.88-.75,11.68-2.4,16.3-5.68a20.8,20.8,0,0,0,5.69-6.06,13.65,13.65,0,0,0,1-1.84l.48-.94.5-1.08,2-4.29a326.72,326.72,0,0,1,19-32.37c6.84-10.45,14-20.65,21.39-30.69l.43-.59.71-.17,67.7-16.25,5.4-1.3-3.7,4.13q-19.77,22.07-39.36,44.3c-6.49,7.43-13,14.85-19.34,22.4-.78.94-1.56,1.89-2.3,2.85-.37.48-.74,1-1.05,1.42-.06.1-.16.23-.19.3l0,0v0s0,0,0,0a.57.57,0,0,0,0-.26c0-.1,0,0,0,0a3.61,3.61,0,0,0,.14.59,30.65,30.65,0,0,0,3.2,6.3,31.94,31.94,0,0,0,9.91,10.12,18.78,18.78,0,0,0,6.49,2.5,16.82,16.82,0,0,0,3.47.21,10.39,10.39,0,0,0,1.75-.18l1.77-.26a66.18,66.18,0,0,0,13.73-4.83c2.25-1,4.42-2.13,6.62-3.22s4.34-2.31,6.46-3.56c4.29-2.42,8.45-5,12.58-7.73a221.89,221.89,0,0,0,23.63-17.72c7.46-6.49,14.86-13,22.41-19.41l.23-.19.16.25c1.3,2,2.63,4.09,3.9,6.16s2.53,4.14,3.74,6.25A109,109,0,0,1,3023.08,1968.53Z"/><path class="cls-33" d="M3001.35,1971.22a66.4,66.4,0,0,0,20.44,59.06"/><path class="cls-29" d="M3001.35,1971.22a126.68,126.68,0,0,0,1.62,16,95.32,95.32,0,0,0,10.2,29.45,128.63,128.63,0,0,0,8.62,13.6,42.62,42.62,0,0,1-12.36-11.17,54.14,54.14,0,0,1-10.88-31.47A42.7,42.7,0,0,1,3001.35,1971.22Z"/><path class="cls-34" d="M2880.81,1976.62l3.39,27.08"/><path class="cls-33" d="M2953.66,1834.17s-65,4.39-69.46,15-57.68,61.61-57.68,61.61"/><path class="cls-29" d="M2953.66,1834.17c-12.93,2.15-25.84,4.13-38.57,6.61a176.69,176.69,0,0,0-18.71,4.54c-1.5.5-3,1-4.38,1.58a20.81,20.81,0,0,0-3.8,2A5.42,5.42,0,0,0,2887,1850c-.05.07-.09.14-.14.2a1.53,1.53,0,0,1-.1.21c-.23.46-.45.93-.69,1.38a43.63,43.63,0,0,1-3,4.36c-2.08,2.68-4.26,5.16-6.45,7.63s-4.43,4.88-6.71,7.24c-4.59,4.7-9.18,9.37-14,13.85-9.48,9-19.22,17.78-29.45,26,8.59-9.91,17.45-19.51,26.3-29.09,4.38-4.83,8.87-9.55,13.18-14.41s8.74-9.64,12.59-14.65a41.27,41.27,0,0,0,2.6-3.7l.41-.8c.11-.21.3-.6.46-.89s.37-.54.56-.79a11.17,11.17,0,0,1,2.44-2.17,25.31,25.31,0,0,1,4.89-2.48,45.7,45.7,0,0,1,4.87-1.64,139.93,139.93,0,0,1,19.56-3.77A274.69,274.69,0,0,1,2953.66,1834.17Z"/><path class="cls-33" d="M2845.45,1813.43s-22.09,11.28-31.56,20.74-49.78,51.4-80.25,94.68"/><path class="cls-29" d="M2845.45,1813.43c-5.7,3.68-11.36,7.35-16.81,11.28-2.73,2-5.4,4-7.94,6.08-1.27,1.06-2.5,2.15-3.69,3.25l-1.7,1.72-1.71,1.84c-4.53,5-9.12,9.91-13.6,15s-9,10-13.47,15-9,10.07-13.38,15.14c-2.25,2.51-4.44,5.07-6.66,7.6l-3.29,3.83-3.33,3.81c-8.8,10.21-17.48,20.51-26.23,30.87a331.29,331.29,0,0,1,22.79-33.66c4.07-5.42,8.35-10.67,12.63-15.93s8.76-10.34,13.24-15.42,9.11-10,13.78-14.93,9.43-9.73,14.37-14.4l1.86-1.75,2-1.76c1.35-1.11,2.72-2.18,4.15-3.15,2.84-2,5.74-3.77,8.7-5.47A167.28,167.28,0,0,1,2845.45,1813.43Z"/><path class="cls-16" d="M3312,1948.73c-27.67,22.39-86.52,66.06-140.17,61.27a109.67,109.67,0,0,0,13-6.93c7.9-4.93,17.09-12.1,20.39-20.35a15.87,15.87,0,0,0,.91-9.51,13.38,13.38,0,0,0-.91-2.58V1953.2l-41.32-21.65c-.48-.33-1-.66-1.45-1-16.49-11.19-35.53-21.56-53.23-27.65a111.36,111.36,0,0,0-17-4.54,65.11,65.11,0,0,0-13.23-1.1s-23.46-3.19-28.87,0c-.72.44-.53-.34.4-2,3.59-6.5,18.18-26.53,33.66-43.28.62-.68,1.24-1.34,1.87-2,.08.51.15,1,.24,1.52,48-25.28,30.65-9.53,133.6,22.38C3272.87,1890.26,3299.08,1921.67,3312,1948.73Z"/><path class="cls-31" d="M3188.85,1732.27a10.54,10.54,0,0,0,8.46-.11,15.49,15.49,0,0,0,3.62-2.14,16.48,16.48,0,0,0,2.94-2.9c3.39-4.44,5-10.09,7.46-15.84a58.68,58.68,0,0,1,10.51-15.84,91,91,0,0,1,14.2-12.33,182.32,182.32,0,0,1,15.65-9.76c5.31-3,10.6-5.83,16-8.61q16.11-8.35,32.73-15.65l6.66-2.91-2.49,6.53a42.76,42.76,0,0,1-4.73,9,42.09,42.09,0,0,1-6.62,7.46,40.46,40.46,0,0,1-8,5.67,37,37,0,0,1-9,3.49,46.11,46.11,0,0,0,14.44-11.64,45.88,45.88,0,0,0,5-7.55,41,41,0,0,0,3.26-8.26l4.17,3.62L3271.57,1672l-15.72,8.75c-2.59,1.46-5.18,2.92-7.7,4.45s-5,3-7.47,4.66a98.81,98.81,0,0,0-13.61,10.67,59.46,59.46,0,0,0-10.58,13.33c-1.45,2.5-2.75,5.24-4.33,7.94a33.16,33.16,0,0,1-5.78,7.64,17.87,17.87,0,0,1-8.52,4.55A10.82,10.82,0,0,1,3188.85,1732.27Z"/><path class="cls-33" d="M2996,1880.16s-19,5.61-38.78,27.95"/><path class="cls-29" d="M2996,1880.16c-3.43,2.38-6.65,4.67-9.87,7s-6.35,4.6-9.51,6.91l-9.44,7.09-1.21.87-1.19.91c-.8.6-1.61,1.18-2.44,1.76-1.65,1.17-3.28,2.38-5.12,3.44.45-.94,1-1.85,1.48-2.75s1.05-1.79,1.64-2.63,1.21-1.67,1.84-2.49,1.28-1.62,2-2.38,1.39-1.53,2.1-2.27,1.49-1.43,2.23-2.14c1.49-1.43,3.14-2.68,4.76-4a57.27,57.27,0,0,1,10.71-6.24A34.53,34.53,0,0,1,2996,1880.16Z"/><path class="cls-16" d="M1966.5,2009.34c-11.17-.4-64.54-11.35-99.19-18.93a122.55,122.55,0,0,1-24.88-24.74c-25.74-35-10-71.81,16.18-100.89,20.05-22.27,64.16-60.32,96.65-46.84l11.21,4.65c-7.91,8-15.3,19.5-13.79,34.06-32.31,26.39-13,75.13-10.36,98.44,1.21,10.88,6.55,23.41,11.91,33.69l0,0A205.47,205.47,0,0,0,1966.5,2009.34Z"/><path class="cls-35" d="M1973.09,1825.34c-2.26,9.91-7.93,21.12-20.41,31.31-1.51-14.56,5.88-26.1,13.79-34.06Z"/><path class="cls-26" d="M2242.56,1902.93c-.77,4.44-3.7,9.22-7.72,13.24-.65.66-1.34,1.3-2.06,1.93-7.49,6.47-17.65,10.19-24.94,5.59a92,92,0,0,1,16,17.49c3.5,5,5.73,13.27,10.94,16.5l-.65.2c-7.37,2.4-16.48,2.89-24.33,4.16,0,0,15.31,8.2,8,15.26a84.81,84.81,0,0,1-6.53,5.48c-10.61,8.27-27.62,19.8-27.62,19.8s-20.72,14.57-27.63,15.34c-3.83.42-29.82,3.58-53,6.24-18.55,2.11-35.32,3.92-37.54,3.74-17.47-1.36-35.32-5.83-52.37-9.67-10.77-2.43-21.8-4.9-32.12-8.91-5.16-2-7.16-4.31-10.33-7.93l-1.2-1.35c-5.42-6.09-13.1-9.75-18-16.47-5.22-7.22-8.24-19.75-9.21-28.48-2.59-23.32-22-72,10.36-98.44a36,36,0,0,1,1-12.9c2.24-8.6,7.42-15.72,12.82-21.17a73.18,73.18,0,0,1,16.91-12.65s-3.06-38.76,12.28-53,21.88-6.14,41.45-5.37a35.15,35.15,0,0,1,5.67.74c19,4,44.09,22.3,74.91,22.29,34,0,54.11,10,63.71,14.58,8,3.84,26.91,49.84,32.93,65,1.2,3,1.89,4.77,1.89,4.77,2.7,7,15,14.44,19.51,21.39C2239.92,1886.84,2243.94,1894.93,2242.56,1902.93Z"/><path class="cls-33" d="M1951.37,1850.26a246.64,246.64,0,0,0,2.77,25.44"/><path class="cls-29" d="M1951.37,1850.26a24.22,24.22,0,0,1,2.66,6.2,37.68,37.68,0,0,1,1.21,6.25,36.42,36.42,0,0,1,.17,6.36,23.71,23.71,0,0,1-1.27,6.63,20.18,20.18,0,0,1-3.15-6,29.77,29.77,0,0,1-1.38-6.35,30.6,30.6,0,0,1,0-6.49A20.36,20.36,0,0,1,1951.37,1850.26Z"/><path class="cls-33" d="M1955.66,1889.58a81.53,81.53,0,0,0,2.16,61.56"/><path class="cls-29" d="M1955.66,1889.58c-.74,5.34-1.43,10.47-1.8,15.6a135.91,135.91,0,0,0,1.08,30.52c.73,5.1,1.78,10.17,2.88,15.44a47.93,47.93,0,0,1-7.23-14.43,61.2,61.2,0,0,1-1.12-32.22A48.16,48.16,0,0,1,1955.66,1889.58Z"/><g class="cls-9"><path class="cls-27" d="M2182.4,1992.27c9.53-3.24,19.28-6.23,28.92-9.49-10.61,8.27-27.62,19.8-27.62,19.8s-20.72,14.57-27.63,15.34c-3.83.42-29.82,3.58-53,6.24C2129.42,2013.27,2155.39,2001.48,2182.4,1992.27Z"/></g><path class="cls-33" d="M1997.79,1959.33c3.26,2.37,83.89,30.83,102,32.61s80.42,13.19,89.24,7"/><path class="cls-29" d="M1997.79,1959.33l1.43.58c.48.18,1,.33,1.45.5,1,.32,1.95.65,2.94.95,2,.62,3.91,1.26,5.88,1.85l11.78,3.62,23.55,7.24c7.87,2.34,15.69,4.81,23.56,7.08s15.73,4.62,23.6,6.44l2.93.66c.49.1,1,.23,1.47.32l1.42.23,1.43.23c.47.08.95.16,1.49.21l3.11.37q6.16.81,12.25,1.76l24.33,3.88,12.16,1.86c4,.61,8.11,1.18,12.17,1.67s8.13.94,12.2,1.19c2,.12,4.08.19,6.11.11a14.77,14.77,0,0,0,5.95-1.14,8.92,8.92,0,0,1-2.81,1.31,28.64,28.64,0,0,1-3.05.69c-2.06.32-4.13.48-6.2.6-4.15.22-8.29.13-12.42,0-8.26-.34-16.49-1-24.68-1.91s-16.36-2-24.51-3c-4.08-.52-8.14-1.1-12.18-1.57l-3-.33c-.48,0-1-.12-1.57-.2l-1.62-.24-1.62-.25c-.53-.08-1-.21-1.55-.32l-3.08-.66a489.49,489.49,0,0,1-47.27-14.86q-11.62-4.2-23.09-8.81c-3.8-1.57-7.62-3.11-11.4-4.77A109.6,109.6,0,0,1,1997.79,1959.33Z"/><path class="cls-33" d="M2006.68,1897.08c1.78.89,123.61,47.65,147,54.06s56.09,10.9,56.09,10.9"/><path class="cls-29" d="M2006.68,1897.08q25.52,8.16,50.7,17.07c8.43,2.9,16.78,6,25.18,8.95l25.11,9.12c8.35,3.11,16.71,6.14,25.07,9.18s16.67,6.1,25.11,8.54c4.25,1.2,8.54,2.29,12.85,3.36s8.64,2.08,13,3c8.67,2,17.39,3.81,26.12,5.69-8.91-.63-17.78-1.71-26.63-3s-17.66-2.83-26.42-4.86l-3.29-.78c-1.09-.27-2.18-.59-3.27-.89-2.2-.59-4.34-1.27-6.47-1.94-4.29-1.32-8.51-2.76-12.76-4.15-8.45-2.9-16.85-5.9-25.24-8.93s-16.71-6.22-25-9.42-16.62-6.45-24.87-9.85-16.49-6.77-24.7-10.26S2014.73,1901,2006.68,1897.08Z"/><path class="cls-33" d="M2016.76,1815.12s57.53,27.12,71.74,31,105,74.22,115.92,77.42"/><path class="cls-29" d="M2016.76,1815.12c16.93,6.63,33.67,13.65,50.47,20.4,4.21,1.66,8.42,3.32,12.62,4.9,2.11.81,4.21,1.52,6.31,2.24l3.12.93c.64.22,1.32.43,1.93.67l1.68.76c2.17,1,4.19,2.19,6.18,3.36s3.92,2.4,5.86,3.62q5.78,3.7,11.43,7.53,11.23,7.77,22.26,15.76c7.31,5.39,14.66,10.72,21.88,16.21l21.72,16.4c3.6,2.76,7.24,5.46,10.88,8.15,1.82,1.35,3.66,2.68,5.53,4a36.3,36.3,0,0,0,5.79,3.51,33.47,33.47,0,0,1-6.24-2.78c-2-1.08-4-2.22-5.94-3.38-3.93-2.31-7.77-4.75-11.61-7.18q-11.46-7.38-22.7-15.08c-7.54-5.06-14.94-10.31-22.42-15.43s-14.85-10.39-22.34-15.46c-3.73-2.56-7.47-5.09-11.23-7.55s-7.61-4.86-11.4-6.84l-1.4-.68-1.27-.49-3.38-1.11c-2.16-.82-4.33-1.62-6.44-2.51-4.25-1.7-8.4-3.57-12.55-5.46Q2040.66,1828.23,2016.76,1815.12Z"/><path class="cls-33" d="M2068.34,1778.51c.59,1.48,69.66,21,77.66,28.46s70.23,52,70.23,52"/><path class="cls-29" d="M2068.34,1778.51a4.24,4.24,0,0,0,1.22.5l1.27.37,2.58.68,5.15,1.33,10.32,2.67c6.86,1.85,13.71,3.73,20.52,5.79s13.59,4.23,20.34,6.58c3.38,1.19,6.72,2.5,10.06,3.94,1.68.74,3.34,1.49,5,2.44a18.48,18.48,0,0,1,2.63,1.71l2.06,1.74c5.32,4.4,11.06,8.68,16.66,13s11.28,8.6,16.85,13c11.21,8.7,22.35,17.5,33.19,26.74-12.22-7.32-24.09-15.13-35.8-23.17-5.89-4-11.64-8.14-17.44-12.25-2.89-2.07-5.73-4.21-8.59-6.34s-5.68-4.28-8.52-6.6l-2-1.72a14,14,0,0,0-1.82-1.2c-1.39-.8-2.95-1.54-4.52-2.25-3.14-1.42-6.42-2.68-9.69-4-6.54-2.6-13.22-4.94-19.86-7.42s-13.32-4.86-20-7.33c-3.31-1.27-6.64-2.51-10-3.83l-4.95-2-2.45-1.07A10.43,10.43,0,0,1,2068.34,1778.51Z"/><g class="cls-9"><path class="cls-27" d="M2151.55,1808.19c-22.5-11.72-49.65-11.25-72.67-21.93-15.26-7.08-27.83-19.29-36.1-33.92,19,4,44.09,22.3,74.91,22.29,34,0,54.11,10,63.71,14.58,8,3.84,26.91,49.84,32.93,65C2190.51,1843.93,2174.64,1820.22,2151.55,1808.19Z"/></g><path class="cls-14" d="M2144.29,1806.74c-12.94-6.62-42.51-16.92-62.46-23.08-.11-.16-.21-.33-.32-.5-18.08-28.26-41.88-66.56-74.83-120.25,0-1.79,11.27-16.31,19.56-16C2032.44,1647.11,2103.58,1749.13,2144.29,1806.74Z"/><path class="cls-14" d="M2255.68,1972.23c-1.25,1.45-9.53-4.29-21.55-14.35l.65-.2c-5.21-3.23-7.44-11.48-10.94-16.5a92,92,0,0,0-16-17.49c7.29,4.6,17.45.88,24.94-5.59Z"/><path class="cls-26" d="M2465.7,627c-.17-8.79-.34-17.67,1.57-26.25,4.46-20,22.95-34.6,42.21-21.88,23,15.2,37,41.32,30.65,69-5.76,25-27.38,56.79-50.33,68.32Z"/><path class="cls-36" d="M2094.65,691.86a203.67,203.67,0,0,1-5.4,31.48l-39.75-2.94a12.07,12.07,0,0,1-10.2-7.27c-1.5-3.5-3.5-8.16-5.81-13.47h0c-6.9-16-16.46-37.8-23.11-52a6.77,6.77,0,0,1,5.07-9.58c10.88-1.73,30.1-4,48.22-2.15a97.5,97.5,0,0,1,13.15,2.2,9.25,9.25,0,0,1,6.44,5.78c.12.33.22.66.31,1Z"/><path class="cls-36" d="M2232.71,716.39c-3.61.71-8.91,1.71-15.13,2.77-7.07,1.23-15.32,2.51-23.61,3.51a212.66,212.66,0,0,1-27.17,1.86,14.69,14.69,0,0,1-12.07-6.66,12.42,12.42,0,0,1-.95-1.67c-2.5-5.19-6.05-12.61-10-20.9-6.5-13.83-13.95-30.1-19.07-42.52a5.64,5.64,0,0,1,4.06-7.65c8.85-1.86,25.45-5.13,42.26-7.39,8.56-1.16,17.17-2,24.83-2.35,7-.27,13.23-.06,17.88.9a5.55,5.55,0,0,1,4.05,3.48c1.34,3.5,3.81,10.16,6.59,18.57,2.85,8.62,6,19.1,8.61,29.89a214.85,214.85,0,0,1,4.18,21.93A5.64,5.64,0,0,1,2232.71,716.39Z"/><path class="cls-37" d="M2083.26,643.89l-37.71,75.53a12,12,0,0,1-6.25-6.29c-1.5-3.5-3.5-8.16-5.81-13.47h0c9.39-19.83,21.4-45.18,30.18-63.74a97.5,97.5,0,0,1,13.15,2.2A9.25,9.25,0,0,1,2083.26,643.89Z"/><path class="cls-37" d="M2195.91,635.39l-41.18,82.48a12.42,12.42,0,0,1-.95-1.67c-2.5-5.19-6.05-12.61-10-20.9l27.25-57.56C2179.64,636.58,2188.25,635.69,2195.91,635.39Z"/><path class="cls-37" d="M2233,688.23l-15.46,30.93c-7.07,1.23-15.32,2.51-23.61,3.51,9.31-19.68,21.45-45.33,30.46-64.33C2227.28,667,2230.46,677.44,2233,688.23Z"/><path class="cls-38" d="M2535.36,1352.53a347.82,347.82,0,0,1,32.49-42.59c15.11-16.92,34.06-33.3,56.73-34a7.52,7.52,0,0,1,7.55,7.85c-.12,4.28-2,8.3-4,12.06a122.51,122.51,0,0,1-65.69,56.34"/><path class="cls-22" d="M1867.31,1990.4a187.48,187.48,0,0,0,20.61,13.53c-4.71-.78-11.1-5.62-15.82-6.4-5.85,7.64-17.75,5.09-26.79,1.8L1724,1955.25c-5.75-2.1-11.55-4.21-16.65-7.59a65.79,65.79,0,0,1-22.5-24.21c38.57,12,89.31,20.1,123.52,5,6.35-2.8,14.08-6,21.63-9.71-2.24,15.46,1,31.38,12.45,47A121.75,121.75,0,0,0,1867.31,1990.4Z"/><path class="cls-22" d="M2010.65,1427.55q-.5-5.83-1.36-11.63C2011.09,1421.45,2012.09,1426.49,2010.65,1427.55Z"/><g class="cls-9"><path class="cls-27" d="M1970.69,2001.39l-1.2-1.35c-5.42-6.09-13.1-9.75-18-16.47-5.22-7.22-8.24-19.75-9.21-28.48-2.59-23.32-22-72,10.36-98.44a36,36,0,0,1,1-12.9,167.59,167.59,0,0,1,4,54.71c-.62,6.63-1.63,13.22-2.21,19.86C1953.07,1945.46,1958,1976.11,1970.69,2001.39Z"/></g><g class="cls-30"><path class="cls-28" d="M2053.66,457.44c5.49,4,10.88,8.58,16.43,12.89l-3.07-1.19c-1.24,5-1.9,7.94-7.05,8.38a286,286,0,0,1-38.17.79q-6.78-.33-13.54-.95c-4.17-.39-8.48-.92-12.08-3.06s-6.34-6.3-5.52-10.41a19.53,19.53,0,0,1-11.25-5.25,22.55,22.55,0,0,1-2.05-2.1,73.84,73.84,0,0,0,25.89,4.61c28.27.1,56.88-14.31,79.48-30.71C2079.63,444,2063.85,450.43,2053.66,457.44Z"/></g><g class="cls-30"><path class="cls-28" d="M2255.69,373.68c6.72,18.68.57,45.62-10.26,62.27A113.26,113.26,0,0,1,2230,454.66a93.74,93.74,0,0,1-18.43-3.34c-4.26-1.25-8.32-3.4-12.74-3.58a17.62,17.62,0,0,0-3.51.22c9.65-6.81,19.13-13.85,27.93-20.91C2239.78,413.76,2251.73,394.59,2255.69,373.68Z"/></g><g class="cls-30"><path class="cls-28" d="M2344.67,398.8a68.76,68.76,0,0,1-8.43,14,58.47,58.47,0,0,1,5.79-11A21.56,21.56,0,0,1,2344.67,398.8Z"/></g><g class="cls-30"><path class="cls-28" d="M2344.68,487.6a291.82,291.82,0,0,1-38.6,20.68c2.07-1.76,4.05-3.64,6-5.52,13.21-12.8,23.71-25.28,28.18-43.49,2.57-10.5,3.14-21.11,4.7-31.61.89-6.06-1.57-24.16-.21-28.94,4.77-4.62,10.65-7.33,12.6-15.17-1.53,6.13,3.17,18.1,3.93,24.59C2364.18,433,2369.23,472,2344.68,487.6Z"/></g><g class="cls-30"><path class="cls-28" d="M2397.9,449.52c3.68,20.61-5.4,54-20.2,68.6l-6.15,6.1a102.84,102.84,0,0,1-13.46,3.77c8.43-3.45,14.82-10.86,18.68-19.11,3.13-6.67,4.78-13.91,5.87-21.2C2390.67,476.3,2396.23,463.3,2397.9,449.52Z"/></g><g class="cls-30"><path class="cls-28" d="M2589.44,596a.14.14,0,0,0-.05.08,50.45,50.45,0,0,1,5.41-15.7C2595.82,586,2592.61,591.32,2589.44,596Z"/></g><g class="cls-30"><path class="cls-28" d="M2159.59,299.09a126.72,126.72,0,0,0-41.33,28.61c-14.57,15.18-19.4,34-35.53,47.64-9.79,8.27-20,16.28-31.44,22s-24.47,9-37.17,7.36c-7-.9-11-6-13.95-12.62a42.87,42.87,0,0,0,19,3.82c13.11-.33,25.53-5.59,37.46-11s25.16-12.69,28.87-25.4a9.11,9.11,0,0,1,1-2.51,17.85,17.85,0,0,1-13.35.29,21.81,21.81,0,0,1-3.1-1.44,89.79,89.79,0,0,0,22.26-10.88c11.4-7.69,20.87-17.86,31.29-26.83S2146,301.08,2159.59,299.09Z"/></g><g class="cls-30"><path class="cls-28" d="M2494.67,314A159.79,159.79,0,0,0,2493,361.8c-1.95-12.62-6.55-24.47-8.66-36.84-1.51-8.9-3.17-17.71-5.21-26.45.59,1.31,1.17,2.64,1.72,4,5.84-.78,11.64-1.4,17.36-1.63A80.84,80.84,0,0,0,2494.67,314Z"/></g><path class="cls-20" d="M2070.2,260.7c-17.83,30.57-54.84,48.54-89.94,42.81-7.55-1.24-10.8,10.32-3.19,11.57,40.46,6.61,82.75-12.76,103.49-48.32,3.9-6.69-6.46-12.73-10.36-6.06Z"/><path class="cls-20" d="M2594.5,299.91c47.13,33.51,67.26,98.64,48.47,153.07-2.52,7.31,9.07,10.45,11.57,3.19,15.94-46.15,5.72-99.34-23.9-137.76a141,141,0,0,0-30.08-28.86c-6.31-4.48-12.31,5.92-6.06,10.36Z"/><path class="cls-14" d="M2912,2045.05a3.21,3.21,0,0,1-2.95,2.81c-7.13.55-26.49-.67-26.52,3.58,0,3.78-4.08,23.52-6.29,31.73a7.18,7.18,0,0,1-6.7,5.31c-34.51,1.1-225.84,7.27-229.31,8.86-3.81,1.73-53.1-24-54.84-23.6-1.54.31-48.8-19.72-59.11-24.11a3.24,3.24,0,0,1-2-3v-8.48a3.24,3.24,0,0,1,3.29-3.24c9.8.14,38.46.52,43.92-.06,5.31-.55,15.14,4.32,18.75,6.23a3.32,3.32,0,0,0,2.82.11c8.51-3.74,51.93-22.69,57.55-23,6.25-.34,239.47-10.09,253.36-8.86C2915.66,2010.37,2913.12,2036.4,2912,2045.05Z"/><path class="cls-39" d="M2882.53,2051.44c0,3.78-4.08,23.52-6.29,31.73a7.18,7.18,0,0,1-6.7,5.31c-34.51,1.1-225.84,7.27-229.31,8.86-3.81,1.73-53.1-24-54.84-23.6,10.07-1.39,46.51-18.74,68.73-22.3S2882.53,2051.44,2882.53,2051.44Z"/><path class="cls-35" d="M2648.92,2053c-2.05,13.19-4.28,30.81-6.7,43.94"/><path class="cls-40" d="M650.39,1731.9c-101.89,0-194.56-8.85-281.15-26.75-75.17-15.54-181.61-47.62-261.77-112.19-38.55-31.06-67.15-66.76-85-106.1-19.92-43.94-26.66-93-20-145.84,8.88-70.62,39.43-143.21,93.39-221.92C234.44,917,424.75,755,677.69,624c146.89-76.1,304.8-140.69,469.34-192a3019.46,3019.46,0,0,1,495.51-110,6.32,6.32,0,0,1,1.67,12.52c-335.78,45.07-668,149.05-960.71,300.7-251,130-439.85,290.68-577.22,491.05C53.49,1203.25,23.63,1274,15,1342.6c-30.59,243.16,239.32,325.9,356.79,350.19,91.94,19,185.68,26.67,279.67,26.67,160.13,0,321.07-22.23,475.72-48.52,15.77-2.68,31.93-5.51,49.4-8.66a6.31,6.31,0,0,1,2.24,12.42c-17.51,3.16-33.71,6-49.52,8.69-103.26,17.55-239.65,38.62-379,45.85Q698.85,1731.9,650.39,1731.9Z"/><g class="cls-41"><path class="cls-42" d="M654.81,1178.35c-43.88,0-77.17-8.81-99.21-26.29-22.9-18.18-32.81-45.22-29.44-80.36,8.37-87.52,72.09-172.67,133.32-244.43C755,715.35,879.6,627.94,989.56,550.81a6.31,6.31,0,1,1,7.25,10.34C887.47,637.84,763.53,724.77,669.09,835.46c-60,70.27-122.32,153.42-130.37,237.44-2.93,30.61,5.39,53.92,24.73,69.26,23.46,18.62,64.09,26.43,117.49,22.58,58.71-4.24,110.48-20.45,124.95-25.32a6.32,6.32,0,1,1,4,12c-14.83,5-67.87,21.6-128.07,25.94Q667.74,1178.35,654.81,1178.35Z"/></g><polygon class="cls-16" points="1364.81 1051.07 1284.24 937.76 1250.34 839.8 1166.86 778.45 1063.46 857.95 1058.63 851.66 1166.75 768.52 1257.03 834.87 1291.37 934.09 1364.76 1037.31 1424.57 951.93 1533.38 872.51 1620.44 935.64 1728.76 861.03 1811.69 922.03 1821.66 919.05 1823.93 926.65 1810.18 930.77 1728.61 870.76 1620.33 945.35 1533.39 882.32 1430.31 957.56 1364.81 1051.07"/><polygon class="cls-16" points="1371.45 1287.7 1387.34 870.76 1255.97 1130.25 1223.31 1017.19 1139.92 955.9 1036.53 1035.4 1031.69 1029.11 1139.81 945.98 1230.19 1012.4 1257.99 1108.68 1396.64 834.8 1379.98 1272.11 1484.94 1199.15 1580.77 1173.46 1743.07 759.86 1800.73 1007.4 1808.52 1004.78 1811.05 1012.3 1794.99 1017.7 1741.13 786.52 1586.69 1180.08 1488.33 1206.45 1371.45 1287.7"/><rect class="cls-16" x="1529.79" y="949.31" width="553.09" height="21.4" transform="translate(586.14 2601.82) rotate(-81.37)"/><rect class="cls-16" x="1086.36" y="1089.75" width="729.71" height="21.39" transform="translate(145.45 2370.09) rotate(-81.37)"/><rect class="cls-16" x="849.74" y="1077.06" width="729.71" height="21.39" transform="translate(-43.11 2125.37) rotate(-81.37)"/><rect class="cls-16" x="936.36" y="938.2" width="310.46" height="21.39" transform="translate(-10.36 1885.73) rotate(-81.37)"/><g class="cls-43"><rect class="cls-44" x="1198.97" y="1066.78" width="224.37" height="21.39" transform="translate(49.12 2212.09) rotate(-81.37)"/></g><rect class="cls-14" x="1012.06" y="958.84" width="59.18" height="21.39" transform="translate(-73.22 1853.9) rotate(-81.37)"/><rect class="cls-14" x="1082.76" y="897.45" width="31.82" height="21.39" transform="translate(35.94 1858.1) rotate(-81.37)"/><rect class="cls-14" x="1117.51" y="987.18" width="30.49" height="21.39" transform="translate(-23.8 1968.05) rotate(-81.37)"/><rect class="cls-14" x="1154.22" y="935.56" width="163.54" height="21.39" transform="translate(114.98 2026.25) rotate(-81.37)"/><rect class="cls-14" x="1246.44" y="946.56" width="71.97" height="21.39" transform="translate(143.56 2081.51) rotate(-81.37)"/><rect class="cls-14" x="1299.39" y="1044.7" width="30.88" height="21.39" transform="translate(74.08 2196.96) rotate(-81.37)"/><rect class="cls-14" x="1325.3" y="1095.04" width="59.18" height="21.39" transform="translate(58.36 2279.37) rotate(-81.37)"/><rect class="cls-14" x="1340.29" y="1137.13" width="111.82" height="21.39" transform="translate(51.86 2355.98) rotate(-81.37)"/><rect class="cls-14" x="1384.08" y="1012.23" width="157.58" height="21.39" transform="translate(232 2315.72) rotate(-81.37)"/><rect class="cls-14" x="1488.93" y="1041.92" width="34.27" height="21.39" transform="translate(239.36 2383.67) rotate(-81.37)"/><rect class="cls-14" x="1503.15" y="1046.81" width="99.76" height="21.39" transform="translate(274.44 2434.25) rotate(-81.37)"/><rect class="cls-14" x="1585.51" y="1059.95" width="26.45" height="21.39" transform="translate(300.3 2490.61) rotate(-81.37)"/><rect class="cls-14" x="1600.93" y="1099.91" width="78.89" height="21.39" transform="translate(296.18 2565.75) rotate(-81.37)"/><rect class="cls-14" x="1640.85" y="1029.99" width="115.67" height="21.39" transform="translate(414.87 2563.98) rotate(-81.37)"/><rect class="cls-14" x="1708.24" y="956.42" width="98.62" height="21.39" transform="translate(537.64 2559.64) rotate(-81.37)"/><rect class="cls-14" x="1731.71" y="891.45" width="166.8" height="21.4" transform="translate(650.8 2561.33) rotate(-81.37)"/><rect class="cls-14" x="1135.36" y="1014.95" width="81.76" height="21.39" transform="translate(-14.3 2034.66) rotate(-81.37)"/><path class="cls-17" d="M1723.74,848.42a77,77,0,1,1,6.32,1.23Q1726.85,849.16,1723.74,848.42Zm33-138q-2.67-.63-5.4-1a64.83,64.83,0,1,0,5.4,1Z"/><path class="cls-17" d="M1574,1220.49a44.11,44.11,0,1,1,53.89-36.28h0a44.16,44.16,0,0,1-50.23,37C1576.38,1221,1575.15,1220.78,1574,1220.49Zm17.79-74.22c-.88-.21-1.77-.38-2.67-.52a32.17,32.17,0,1,0,2.67.52Z"/><path class="cls-17" d="M1522.43,923.35a45.74,45.74,0,1,1,55.89-37.62h0a45.8,45.8,0,0,1-52.09,38.36C1525,923.89,1523.68,923.65,1522.43,923.35ZM1541,846c-.91-.22-1.84-.4-2.78-.54a33.84,33.84,0,1,0,28.38,38.53h0A33.89,33.89,0,0,0,1541,846Z"/><path class="cls-17" d="M1158.67,809.77a35.43,35.43,0,1,1,2.9.56C1160.59,810.18,1159.62,810,1158.67,809.77Zm13.66-57.24c-.63-.15-1.27-.28-1.93-.38a23.52,23.52,0,1,0,1.93.38Z"/><path class="cls-17" d="M1248.59,1154.49a35.5,35.5,0,1,1,2.94.57Q1250,1154.84,1248.59,1154.49Zm13.72-57.22c-.64-.15-1.29-.28-2-.38a23.41,23.41,0,1,0,2,.38Z"/><path class="cls-17" d="M1420.15,978.16a22.3,22.3,0,1,1,27.24-18.34h0a22.32,22.32,0,0,1-25.38,18.7Q1421.07,978.37,1420.15,978.16Zm7.62-31.8c-.28-.07-.57-.12-.86-.17a10.44,10.44,0,1,0,.86.17Z"/><g class="cls-45"><path class="cls-46" d="M912.63,1119.58v0a112.9,112.9,0,0,0-26.14-24c-2-1.3-4-2.56-6.08-3.75a111.44,111.44,0,0,0-28.9-11.58c-.8-.19-1.59-.38-2.38-.55-3.59-.78-7.22-1.41-10.91-1.85-.92-.11-1.84-.21-2.76-.29l-.41,0c-.8-.09-1.6-.14-2.4-.21q-2.79-.18-5.64-.24h-2c-.4,0-.81,0-1.21,0-.82,0-1.64,0-2.47,0-1.9.06-3.82.16-5.74.32-1.31.11-2.61.24-3.9.4-2.6.3-5.17.7-7.7,1.16-1.27.24-2.53.51-3.77.79s-2.49.58-3.72.9a112.92,112.92,0,0,0-25.23,10c-1.54.84-3,1.71-4.54,2.62-2.22,1.36-4.4,2.79-6.52,4.3l-2.1,1.53c-.7.51-1.39,1-2.07,1.57s-1.36,1.08-2,1.63-1.33,1.1-2,1.66-1.31,1.14-2,1.72l-1.9,1.75c-1.25,1.19-2.49,2.4-3.69,3.64s-2.36,2.51-3.5,3.8c-.57.64-1.13,1.3-1.68,2-1.65,2-3.24,4-4.75,6.06,0,0,0,0,0,.06a112.41,112.41,0,0,0-8.28,13.16c-.36.69-.72,1.4-1.09,2.1l-.1.2a103,103,0,0,0-4.77,10.79c-.21.54-.4,1.08-.61,1.62-.26.72-.52,1.45-.76,2.18-.31.92-.61,1.84-.89,2.78-.23.69-.44,1.41-.63,2.13-.38,1.3-.73,2.61-1.06,3.94-.18.73-.35,1.45-.51,2.18s-.29,1.22-.41,1.84c-.09.45-.19.9-.27,1.36-.18.89-.34,1.8-.5,2.71s-.31,1.82-.43,2.74c-.41,2.69-.71,5.4-.88,8.14,0,.1,0,.2,0,.32-.06.89-.1,1.79-.15,2.69s0,1.74-.08,2.62a.6.6,0,0,0,0,.19l0,2.84c0,2.84.14,5.72.38,8.61a111.48,111.48,0,0,0,7.77,32.71q1.54,3.83,3.36,7.5c.41.81.82,1.62,1.24,2.43.82,1.61,1.72,3.19,2.64,4.73v0c.45.78.92,1.55,1.41,2.3s1,1.53,1.46,2.28,1,1.51,1.5,2.24,1,1.49,1.57,2.21,1,1.45,1.6,2.16c1.09,1.43,2.22,2.84,3.38,4.2.58.68,1.16,1.36,1.75,2s1.2,1.34,1.81,2,1.22,1.3,1.85,1.94,1.26,1.28,1.9,1.9c1.9,1.87,3.89,3.69,6,5.41,1.36,1.15,2.76,2.27,4.17,3.37.72.53,1.42,1.08,2.14,1.6,1.44,1.08,2.91,2.09,4.41,3.06.76.5,1.51,1,2.27,1.46s1.52,1,2.28,1.4h0q2.29,1.38,4.68,2.62l2.4,1.24c.8.41,1.61.79,2.44,1.18l2.46,1.12,2.48,1.06c.83.33,1.67.67,2.52,1,1.68.65,3.39,1.26,5.11,1.82.87.3,1.74.58,2.62.85,1.73.5,3.5,1,5.26,1.42,1.55.4,3.12.74,4.7,1,.22.05.45.11.67.14a1.27,1.27,0,0,0,.24.07c.73.14,1.45.27,2.17.38a1.85,1.85,0,0,0,.46.08c.8.13,1.61.27,2.43.39a1.65,1.65,0,0,0,.38,0c2.65.4,5.33.69,8,.85a.35.35,0,0,0,.14,0c.9.06,1.82.11,2.73.14,1.89.1,3.78.13,5.68.1l2.85-.06,2.86-.12c1-.05,1.92-.11,2.89-.19a111.06,111.06,0,0,0,16-2.5c1.09-.24,2.15-.5,3.23-.79.63-.15,1.27-.33,1.9-.53l2.53-.73,2.5-.8c1.66-.55,3.29-1.12,4.91-1.76s3.22-1.29,4.8-2c1-.46,2-.92,3-1.4l2-1,.6-.3a106.13,106.13,0,0,0,10.2-5.91c.72-.46,1.42-.93,2.13-1.41a.06.06,0,0,0,0,0c1.39-1,2.74-1.95,4.09-3a111.76,111.76,0,0,0,20.62-158.57Z"/></g><path class="cls-12" d="M858.78,1191.53a30.11,30.11,0,0,0-5-3.69c-4.43-2.66-10.37-5.08-17.89-7.28l-6.53-1.88-2.52-30.23a88.41,88.41,0,0,1,23.94,3.25c.82.24,1.67.47,2.5.73l4.79-15.7a80,80,0,0,0-8.73-2.27,91.81,91.81,0,0,0-23.81-1.88l-1.14-13.71-11,.92,1.16,14q-15.15,2.85-23.48,11a23.44,23.44,0,0,0-7.34,19.61c.59,7.13,3.17,13,7.75,17.44s11.56,8.12,20.94,10.86l7.19,2,2.59,31.06a76,76,0,0,1-17.33-1,84.92,84.92,0,0,1-17.18-4.47l1.46,17.52q13.71,4.9,34.34,3.52l1.45,17.52,11-.92-1.5-18c9.85-1.93,17.43-5.25,22.83-10,.63-.55,1.22-1.11,1.8-1.71a25.43,25.43,0,0,0,7.15-20.6A23.86,23.86,0,0,0,858.78,1191.53Zm-40.82-16q-8-2.43-11.2-5.34a11.16,11.16,0,0,1-3.58-7.64,9.7,9.7,0,0,1,2.84-7.92c2.16-2.25,5.42-3.88,9.8-4.93Zm15.16,48.58-2.21-26.47c5.44,1.49,9.34,3.18,11.76,5.07a10.33,10.33,0,0,1,4,7.65Q847.58,1220.67,833.12,1224.1Z"/><path class="cls-12" d="M961.05,372.6c-.09-.13-.18-.24-.28-.36-.7-.87-1.41-1.72-2.15-2.55-.27-.31-.56-.62-.86-.94q-.16-.19-.36-.39l-.45-.49c-.15-.16-.3-.32-.47-.48l-.12-.13-.06-.05c-.33-.36-.69-.7-1-1s-.74-.73-1.11-1.08-.82-.75-1.24-1.11-.8-.71-1.22-1.06-.83-.7-1.25-1-.84-.68-1.26-1q-1.93-1.47-4-2.81l-.24-.15c-.37-.25-.75-.49-1.13-.72-1.36-.87-2.78-1.68-4.21-2.44-.48-.25-1-.5-1.44-.74l-1.47-.72-1.48-.67-1.64-.7c-.86-.34-1.71-.67-2.58-1l-.17-.07-.41-.14h-.05c-.41-.15-.84-.3-1.26-.43l-1.57-.5c-1.06-.32-2.13-.62-3.23-.87-.37-.1-.75-.19-1.13-.27a9.21,9.21,0,0,0-.91-.2c-.35-.08-.69-.16-1-.22l-.07,0-.2,0c-1-.2-2.09-.38-3.15-.54l-.45-.06-.45-.06-.19,0-1.09-.13a3,3,0,0,0-.5-.05c-.47-.06-.93-.1-1.4-.14l-.57-.05c-.65-.05-1.32-.08-2-.12h-.08c-.69,0-1.38-.05-2.08-.05s-1.14,0-1.72,0h-.63c-.4,0-.8,0-1.2,0l-1.09.05-1.88.12a68.94,68.94,0,0,0-8.56,1.26l-1.61.36c-1.1.27-2.19.55-3.26.88s-2.14.64-3.19,1c-.53.17-1,.37-1.56.56s-1,.4-1.56.6c-.7.28-1.38.58-2.07.89s-1.26.57-1.89.88a.59.59,0,0,0-.14.06c-.28.14-.56.27-.84.42-.84.41-1.67.85-2.48,1.31s-1.58.9-2.36,1.37l-1.35.85-.94.62c-.75.5-1.49,1-2.23,1.55s-1.73,1.3-2.57,2a65.74,65.74,0,0,0-6,5.44c-.26.26-.51.51-.75.78s-.46.49-.7.74c-.5.54-1,1.1-1.47,1.66-.23.27-.46.55-.7.82-.42.52-.85,1-1.25,1.56-.25.31-.5.63-.74,1s-.45.59-.66.9c-.39.53-.78,1.07-1.14,1.61-.25.35-.48.69-.71,1s-.61.94-.91,1.42-.55.88-.81,1.33l-.81,1.4-.79,1.45c-.25.48-.5.95-.73,1.43s-.48,1-.71,1.47-.43.92-.64,1.39l-.09.22c-.42.95-.82,1.91-1.19,2.89h0c-.38,1-.74,2-1.09,3.08,0,0,0,0,0,0-.35,1-.67,2.09-.95,3.14h0a67.45,67.45,0,1,0,118-23.92Z"/><path class="cls-16" d="M900.07,434a10.24,10.24,0,0,0,3.93-4.47,12.8,12.8,0,0,0,.76-6l-.58-6.89,15-1.24-.54-6.51-15,1.25-.76-9.22q-.69-8.28,7.06-8.93a27.79,27.79,0,0,1,11,1.79l2.3-7.11a34,34,0,0,0-14.43-1.92q-7.53.62-11.48,5t-3.37,11.47l.8,9.69-7.11.59.54,6.5,7.11-.59.58,6.95a11.45,11.45,0,0,1-1.21,6.88,10.19,10.19,0,0,1-5.19,4.09l.61,7.37,39.25-3.27-.65-7.82Z"/><circle class="cls-12" cx="1676.51" cy="1565.26" r="115.68" transform="translate(-615.77 1643.92) rotate(-45)"/><path class="cls-16" d="M1651.58,1529.75c.13-.34.3-1.15-.1.2a15.45,15.45,0,0,1,1-2.23,46,46,0,0,1,4.31-7.11c.87-1.2-1,1.16,0,0l.53-.63c.45-.52.91-1,1.39-1.52s1-1,1.45-1.4c.2-.18.4-.36.61-.53s.41-.34.62-.51c-.79.59-1,.74-.57.44a26.31,26.31,0,0,1,3.16-2c.59-.3,1.44-.33-.19,0,.23,0,.5-.2.72-.27a15.63,15.63,0,0,1,2.22-.64l.76-.15c1.41-.3-1.66.11-.22,0,.65,0,1.29-.06,1.94,0,.35,0,2.09.2.75,0s.61.15,1,.25,1,.31,1.5.47c1.17.39-1.56-.75-.46-.2l.56.27c.45.24.9.49,1.34.76l.51.34c1.38,1-1-.85-.11-.11a24.47,24.47,0,0,1,2.15,2.05c.32.36.6.74.92,1.1-1.55-1.72,0,0,.28.49a27.41,27.41,0,0,1,1.63,2.89c.26.54.86,2.4.16.27.18.54.42,1.06.61,1.6.38,1.1.7,2.22,1,3.34.14.57.26,1.15.37,1.72s.28,3.07.15.67a56.71,56.71,0,0,1,.19,7c0,.57-.13,1.15-.16,1.72.11-2.33,0-.33-.07.26-.27,1.5-.65,3-1.06,4.44-1.73,6.19-4.31,12.09-6.7,18-2.88,7.16-5.26,14.37-6,22.09a13.64,13.64,0,0,0,4.12,11c4.13,4,10.71,3.72,13.72-1.5,1.75-3,.8-7.45-2.4-9.14a6.8,6.8,0,0,0-9.14,2.4l-.15.26a5,5,0,0,1,3.09-2.35,5.61,5.61,0,0,1,2.7,0c1.76.4,1.32.69.71.22,0,0,1.45,1.14.7.47s.86,1.43.25.36c-.11-.19-.23-.4-.35-.57-.69-1,.44,1.56.12.35a7.81,7.81,0,0,0-.25-1c.66,1.57.06,1.39.15.81,0-.41,0-.84.09-1.26a3.8,3.8,0,0,1,.11-.93l-.12.84c0-.31.09-.62.14-.93.27-1.62.61-3.22,1-4.81,1.63-6.27,4.21-12.24,6.63-18.23,2.35-5.78,4.76-11.76,5.7-18a45.36,45.36,0,0,0-.57-17.14c-2.34-10.2-9.26-20.72-20.09-23.09a24.65,24.65,0,0,0-18.68,3.41,40.58,40.58,0,0,0-12.89,14.23c-7.81,13.82-10.71,31-9.21,46.71a7.15,7.15,0,0,0,2,4.72,6.75,6.75,0,0,0,4.72,2c3.33-.15,7-3,6.68-6.68h0a79.78,79.78,0,0,1-.32-10.6c.06-1.6.17-3.19.33-4.78a21.11,21.11,0,0,1,.25-2.26c-.37,1.78,0,.12,0-.23.07-.5.16-1,.24-1.49a78.44,78.44,0,0,1,2.44-10.06"/><path class="cls-16" d="M1686.51,1612.14a11.78,11.78,0,0,0,21.21-10.24c-6.44-2.94-15,1-17,7.79"/><path class="cls-16" d="M1680.74,1615.52c5.51,10.78,21.89,13.26,29.83,3.85a19.57,19.57,0,0,0,4.32-17.16c-.55-2.35-1.66-4.8-3.8-6.08a13.33,13.33,0,0,0-4.42-1.52,20,20,0,0,0-8.87.35,19.6,19.6,0,0,0-13.54,13,6.74,6.74,0,0,0,4.67,8.22,6.83,6.83,0,0,0,8.22-4.66,10.64,10.64,0,0,1,.46-1.27c-.23.53-.45,1.06-.67,1.59a11.56,11.56,0,0,1,1.35-2.3l-1,1.35a14.4,14.4,0,0,1,2.26-2.29l-1.35,1a14.39,14.39,0,0,1,3.26-1.9l-1.6.67a14.78,14.78,0,0,1,3.39-.91l-1.78.24a13.26,13.26,0,0,1,3.21,0l-1.78-.24a11.72,11.72,0,0,1,2.84.77l-1.59-.67.25.11-2.4-2.4c.08.17.15.34.22.51l-.67-1.6a11.86,11.86,0,0,1,.7,2.66l-.24-1.77a13.35,13.35,0,0,1,0,3l.24-1.78a14.45,14.45,0,0,1-.94,3.48c.22-.54.45-1.07.67-1.6a13.64,13.64,0,0,1-1.69,2.85l1-1.35a12.77,12.77,0,0,1-2,1.94l1.35-1a12.09,12.09,0,0,1-2.38,1.4l1.59-.68a11.69,11.69,0,0,1-2.65.72l1.77-.23a13,13,0,0,1-3.3,0l1.77.24a13.69,13.69,0,0,1-3.2-.88l1.59.68a13.52,13.52,0,0,1-2.87-1.67l1.36,1a12.78,12.78,0,0,1-2-1.93l1,1.35a12.52,12.52,0,0,1-1.18-1.87,6.72,6.72,0,0,0-9.14-2.39,6.83,6.83,0,0,0-2.4,9.14Z"/><path class="cls-14" d="M1053.44,570.94l-78.52,39.75,27.48,16.9L936.7,732.87l-92.27,15.48-30.9,181.18c-16.91,3.94-54.68,12.77-92.67,21.89-105.14,25.25-109.21,27.84-112.48,29.92l15.26,24a10.29,10.29,0,0,1-1.2.66c11.26-4.79,132.77-33.76,206.71-50.9l9.21-2.13L869,773l85-14.26,72.58-116.3,26.84,16.5Z"/><path class="cls-27" d="M2225.17,855.32a80.17,80.17,0,0,1-35.08,33.59c-6.23,3-17.43,7-21.82,1.67a24.09,24.09,0,0,1-3.65-6.3C2183.19,869.55,2202.19,862.66,2225.17,855.32Z"/><g class="cls-47"><path class="cls-20" d="M2566.37,1955.43c-.33,17.08-.83,31.92-1.51,43.75l-164.49-1.42-93.45-.81c.44-16.54,1.09-39.62,1.91-66.85A482.72,482.72,0,0,0,2566.37,1955.43Z"/></g><polygon class="cls-12" points="1343.84 427.25 1278.56 492.21 1272.88 480.27 1260.15 453.54 1201.93 500.93 1258.59 380.65 1323.6 416.19 1343.84 427.25"/><polygon class="cls-12" points="1369.52 637.31 1405.23 571.29 1394.01 568.34 1363.81 560.39 1415.48 484.16 1445.39 520.59 1477.13 559.25 1369.52 637.31"/><polygon class="cls-16" points="1262.97 511.03 1209.29 567.94 1260.14 554.92 1235.23 636.38 1299.35 590.81 1316.67 644.57 1362.72 593.37 1262.97 511.03"/><path class="cls-14" d="M1323.6,416.19l20.24,11.07-65.28,64.95-5.68-11.94A798.68,798.68,0,0,0,1323.6,416.19Z"/><path class="cls-14" d="M1445.39,520.59q-25.31,24.28-51.38,47.75l-30.2-8,51.67-76.23Z"/><path class="cls-12" d="M1263,511,1364.55,388.4A418.51,418.51,0,0,1,1575.36,252h0l-8.94,34.16a418.58,418.58,0,0,1-82.57,161L1362.72,593.37Z"/><circle class="cls-16" cx="1439.09" cy="399.79" r="37.24" transform="translate(138.8 1134.68) rotate(-45)"/><path class="cls-24" d="M1968.91,2034.53a163,163,0,0,1-89.28,37.06l-345.82,31.94-599-43.94v-29.26l90.35-25.92,162.53-46.65Z"/><path class="cls-25" d="M1968.91,2034.53a163,163,0,0,1-89.28,37.06l-345.82,31.94-599-43.94v-29.26l90.35-25.92,162.53-46.65Z"/><path class="cls-39" d="M1968.91,2034.53a163,163,0,0,1-89.28,37.06l-345.82,31.94-599-43.94v-29.26l90.35-25.92L1499.42,2048Z"/><g class="cls-48"><polygon class="cls-49" points="683.24 1471.99 925.6 332.56 2500.7 1262.74 1520.85 2025.37 683.24 1471.99"/></g><path class="cls-14" d="M1494.5,2060.11l-351.75-18.72-207.94-11.06a94.16,94.16,0,0,1-84.26-63.9l-51.47-152.1L724.88,1595l-41.64-123a26.35,26.35,0,0,1,26.35-34.74l132.11,7,248.43,13.22,225.13,12a26.36,26.36,0,0,1,23.54,17.87l.59,1.75,74.43,220,107,316.32A26.33,26.33,0,0,1,1494.5,2060.11Z"/><ellipse class="cls-39" cx="1080.27" cy="1755.25" rx="35.53" ry="79.45" transform="translate(-527.68 465.92) rotate(-19.67)"/><path class="cls-50" d="M1090.13,1457.49,799.08,1814.33,724.88,1595c38.1-49.34,78.55-101.6,116.82-150.77Z"/><path class="cls-50" d="M1413.82,1709.05l-271.07,332.34-207.94-11.06a94.87,94.87,0,0,1-24.58-4.62c110-143.32,406-527.87,421.52-537.29l7.64.67Z"/></g></g></svg>